<svg xmlns="http://www.w3.org/2000/svg" width="139" height="40" viewBox="0 0 139 40">
    <defs>
        <style>
            .cls-1{fill:#fff}.cls-2{fill:#f76b00}
        </style>
    </defs>
    <g id="Group_97" data-name="Group 97" transform="translate(-19.536 -21.897)">
        <path id="Path_299" d="M158.536 57.887a4 4 0 0 1-4 4.01H23.544a4.009 4.009 0 0 1-4.008-4.01V25.912a4.014 4.014 0 0 1 4.008-4.012h130.988a4.008 4.008 0 0 1 4 4.015v31.972z" class="cls-1" data-name="Path 299"/>
        <path id="Path_300" d="M158.15 57.887a4 4 0 0 1-3.992 4.01H23.533a4 4 0 0 1-4-4.01V25.912a4.009 4.009 0 0 1 4-4.015h130.625a4 4 0 0 1 3.991 4.015v31.975z" class="cls-2" data-name="Path 300"/>
        <path id="Path_301" d="M110.82 100.254a6.07 6.07 0 0 1 2.883-5.092 6.193 6.193 0 0 0-4.882-2.647c-2.054-.217-4.046 1.232-5.092 1.232-1.067 0-2.678-1.211-4.414-1.176a6.5 6.5 0 0 0-5.471 3.346c-2.366 4.107-.6 10.142 1.665 13.462 1.134 1.627 2.459 3.441 4.193 3.377 1.7-.069 2.33-1.084 4.377-1.084 2.029 0 2.624 1.084 4.392 1.043 1.821-.028 2.967-1.633 4.061-3.274a13.437 13.437 0 0 0 1.857-3.793 5.869 5.869 0 0 1-3.569-5.394z" class="cls-1" data-name="Path 301" transform="translate(-60.76 -58.577)"/>
        <path id="Path_302" d="M160.136 58.934a5.984 5.984 0 0 0 1.363-4.281 6.062 6.062 0 0 0-3.923 2.035 5.7 5.7 0 0 0-1.4 4.123 5.007 5.007 0 0 0 3.96-1.877z" class="cls-1" data-name="Path 302" transform="translate(-113.416 -27.179)"/>
        <g id="Group_95" data-name="Group 95" transform="translate(62.904 39.808)">
            <path id="Path_303" d="M286.7 142.244h-2.371l-1.3-4.092h-4.514l-1.237 4.092h-2.308l4.474-13.932h2.756zm-4.061-5.809l-1.175-3.638q-.186-.558-.7-2.625h-.042q-.207.889-.66 2.625l-1.155 3.638z" class="cls-1" data-name="Path 303" transform="translate(-274.968 -128.106)"/>
            <path id="Path_304" d="M364.514 155.027a5.7 5.7 0 0 1-1.388 4.051 4.065 4.065 0 0 1-3.088 1.323 3.089 3.089 0 0 1-2.86-1.425v5.271h-2.226v-10.818q0-1.61-.083-3.3h1.958l.124 1.592h.042a3.953 3.953 0 0 1 6.338-.395 5.565 5.565 0 0 1 1.183 3.701zm-2.267.082a4.15 4.15 0 0 0-.66-2.419 2.278 2.278 0 0 0-1.938-.992 2.311 2.311 0 0 0-1.494.548 2.541 2.541 0 0 0-.876 1.437 2.926 2.926 0 0 0-.1.679v1.676a2.693 2.693 0 0 0 .67 1.851 2.223 2.223 0 0 0 1.741.755 2.279 2.279 0 0 0 1.958-.971 4.286 4.286 0 0 0 .699-2.565z" class="cls-1" data-name="Path 304" transform="translate(-341.303 -146.035)"/>
            <path id="Path_305" d="M432.377 155.027a5.7 5.7 0 0 1-1.389 4.051 4.068 4.068 0 0 1-3.088 1.322 3.089 3.089 0 0 1-2.86-1.425v5.271h-2.226v-10.817q0-1.61-.082-3.3h1.958l.124 1.592h.042a3.954 3.954 0 0 1 6.339-.395 5.572 5.572 0 0 1 1.182 3.701zm-2.269.082a4.15 4.15 0 0 0-.661-2.419 2.274 2.274 0 0 0-1.935-.992 2.321 2.321 0 0 0-1.5.548 2.539 2.539 0 0 0-.875 1.437 2.985 2.985 0 0 0-.1.679v1.676a2.7 2.7 0 0 0 .669 1.851 2.227 2.227 0 0 0 1.743.755 2.277 2.277 0 0 0 1.958-.971 4.285 4.285 0 0 0 .701-2.565z" class="cls-1" data-name="Path 305" transform="translate(-397.643 -146.035)"/>
            <path id="Path_306" d="M513.29 137.331a3.726 3.726 0 0 1-1.235 2.895 5.464 5.464 0 0 1-3.784 1.22 6.592 6.592 0 0 1-3.6-.868l.515-1.86a6.179 6.179 0 0 0 3.216.869 3.028 3.028 0 0 0 1.957-.568 1.859 1.859 0 0 0 .7-1.518 1.949 1.949 0 0 0-.578-1.427 5.358 5.358 0 0 0-1.913-1.074q-3.649-1.365-3.65-3.991a3.528 3.528 0 0 1 1.288-2.811 5.085 5.085 0 0 1 3.412-1.1 6.725 6.725 0 0 1 3.154.662l-.558 1.819a5.5 5.5 0 0 0-2.67-.641 2.71 2.71 0 0 0-1.842.579 1.658 1.658 0 0 0-.558 1.262 1.708 1.708 0 0 0 .64 1.364 7.205 7.205 0 0 0 2.019 1.074 6.843 6.843 0 0 1 2.638 1.694 3.536 3.536 0 0 1 .849 2.42z" class="cls-1" data-name="Path 306" transform="translate(-465.673 -127.101)"/>
            <path id="Path_307" d="M569.049 140.6H566.6v4.878q0 1.861 1.3 1.859a3.9 3.9 0 0 0 .989-.1l.062 1.695a5.028 5.028 0 0 1-1.731.247 2.664 2.664 0 0 1-2.062-.807 3.966 3.966 0 0 1-.742-2.708V140.6h-1.461v-1.675h1.461v-1.839l2.186-.662v2.5h2.453z" class="cls-1" data-name="Path 307" transform="translate(-514.054 -134.836)"/>
            <path id="Path_308" d="M615.97 155.083a5.521 5.521 0 0 1-1.32 3.8 4.7 4.7 0 0 1-3.669 1.53 4.478 4.478 0 0 1-3.515-1.466 5.353 5.353 0 0 1-1.309-3.7 5.476 5.476 0 0 1 1.35-3.823 4.673 4.673 0 0 1 3.639-1.489 4.572 4.572 0 0 1 3.544 1.468 5.283 5.283 0 0 1 1.28 3.68zm-2.307.051a4.51 4.51 0 0 0-.6-2.37 2.2 2.2 0 0 0-2-1.2 2.234 2.234 0 0 0-2.041 1.2 4.582 4.582 0 0 0-.6 2.412 4.494 4.494 0 0 0 .6 2.371 2.279 2.279 0 0 0 4.022-.02 4.527 4.527 0 0 0 .618-2.392z" class="cls-1" data-name="Path 308" transform="translate(-549.927 -146.051)"/>
            <path id="Path_309" d="M680.364 152.09a3.861 3.861 0 0 0-.7-.062 2.1 2.1 0 0 0-1.815.89 3.359 3.359 0 0 0-.555 1.984v5.271h-2.226v-6.882q0-1.735-.065-3.163h1.939l.082 1.922h.061a3.446 3.446 0 0 1 1.113-1.592 2.687 2.687 0 0 1 1.609-.538 3.559 3.559 0 0 1 .557.041v2.129z" class="cls-1" data-name="Path 309" transform="translate(-607.084 -146.035)"/>
            <path id="Path_310" d="M721.679 154.6a5.241 5.241 0 0 1-.082 1.012h-6.677a2.918 2.918 0 0 0 .969 2.276 3.308 3.308 0 0 0 2.184.7 7.368 7.368 0 0 0 2.7-.474l.349 1.548a8.333 8.333 0 0 1-3.359.621 4.861 4.861 0 0 1-3.66-1.374 5.086 5.086 0 0 1-1.329-3.689 5.765 5.765 0 0 1 1.238-3.782 4.26 4.26 0 0 1 3.5-1.611 3.73 3.73 0 0 1 3.279 1.611 5.433 5.433 0 0 1 .888 3.162zm-2.122-.579a3.028 3.028 0 0 0-.432-1.716 1.942 1.942 0 0 0-1.773-.932 2.109 2.109 0 0 0-1.772.91 3.34 3.34 0 0 0-.659 1.736h4.635z" class="cls-1" data-name="Path 310" transform="translate(-638.444 -145.959)"/>
        </g>
        <g id="Group_96" data-name="Group 96" transform="translate(63.733 27.826)">
            <path id="Path_311" d="M285.617 65.651h-1.166l-.638-2.011h-2.218l-.609 2.011h-1.135l2.2-6.848h1.357zm-2-2.855l-.577-1.788a27.14 27.14 0 0 1-.344-1.29h-.021c-.071.294-.172.721-.325 1.29l-.567 1.788z" class="cls-1" data-name="Path 311" transform="translate(-279.851 -58.448)"/>
            <path id="Path_312" d="M323.052 70.025l-1.865 4.937h-1.064l-1.8-4.937h1.176l.841 2.611c.142.437.263.853.354 1.249h.03c.082-.355.2-.772.354-1.249l.831-2.611z" class="cls-1" data-name="Path 312" transform="translate(-311.788 -67.76)"/>
            <path id="Path_313" d="M354.609 74.468l-.081-.568h-.03a1.677 1.677 0 0 1-1.439.681 1.435 1.435 0 0 1-1.51-1.453c0-1.219 1.053-1.849 2.877-1.849v-.091c0-.65-.345-.976-1.023-.976a2.3 2.3 0 0 0-1.286.366l-.222-.721a3.144 3.144 0 0 1 1.692-.427c1.286 0 1.935.681 1.935 2.043v1.817a7.354 7.354 0 0 0 .071 1.179zm-.152-2.459c-1.216 0-1.824.3-1.824 1a.7.7 0 0 0 .75.772 1.048 1.048 0 0 0 1.074-1.005z" class="cls-1" data-name="Path 313" transform="translate(-339.376 -67.265)"/>
            <path id="Path_314" d="M386.133 58.86a.656.656 0 1 1 .689-.661.644.644 0 0 1-.689.661zm.568 5.751h-1.094v-4.938h1.093z" class="cls-1" data-name="Path 314" transform="translate(-367.55 -57.408)"/>
            <path id="Path_315" d="M405.193 63.922H404.1v-7.2h1.094z" class="cls-1" data-name="Path 315" transform="translate(-383.004 -56.719)"/>
            <path id="Path_316" d="M422.968 74.463l-.081-.568h-.03a1.677 1.677 0 0 1-1.439.681 1.435 1.435 0 0 1-1.51-1.453c0-1.219 1.053-1.849 2.877-1.849v-.091c0-.65-.344-.976-1.023-.976a2.3 2.3 0 0 0-1.286.366l-.223-.722a3.144 3.144 0 0 1 1.692-.427c1.286 0 1.935.681 1.935 2.043v1.818a7.626 7.626 0 0 0 .07 1.179zM422.816 72c-1.216 0-1.824.3-1.824 1a.7.7 0 0 0 .75.772 1.048 1.048 0 0 0 1.074-1.005z" class="cls-1" data-name="Path 316" transform="translate(-396.129 -67.26)"/>
            <path id="Path_317" d="M456.871 64.034a1.67 1.67 0 0 1-1.548-.874h-.023l-.063.762h-.932c.03-.4.041-.844.041-1.331v-5.872h1.1v2.988h.021a1.688 1.688 0 0 1 1.57-.823c1.186 0 2.017 1.017 2.017 2.5a2.374 2.374 0 0 1-2.183 2.65zm-.222-4.288a1.261 1.261 0 0 0-1.206 1.311v.864a1.208 1.208 0 0 0 1.187 1.24c.82 0 1.307-.67 1.307-1.737-.001-.997-.508-1.678-1.288-1.678z" class="cls-1" data-name="Path 317" transform="translate(-424.687 -56.719)"/>
            <path id="Path_318" d="M492.871 63.922h-1.093v-7.2h1.093z" class="cls-1" data-name="Path 318" transform="translate(-455.797 -56.719)"/>
            <path id="Path_319" d="M512.075 72.211h-3.285a1.415 1.415 0 0 0 1.55 1.463 3.683 3.683 0 0 0 1.327-.234l.17.762a4.1 4.1 0 0 1-1.651.3 2.289 2.289 0 0 1-2.452-2.488 2.409 2.409 0 0 1 2.329-2.652 2.451 2.451 0 0 1 2.011 2.844zm-1-.782c0-.762-.385-1.3-1.085-1.3a1.3 1.3 0 0 0-1.2 1.3z" class="cls-1" data-name="Path 319" transform="translate(-469.044 -67.214)"/>
            <path id="Path_320" d="M560.762 74.58a2.347 2.347 0 0 1-2.371-2.54 2.4 2.4 0 0 1 2.453-2.611 2.329 2.329 0 0 1 2.371 2.53 2.417 2.417 0 0 1-2.453 2.621zm.042-4.349c-.79 0-1.3.741-1.3 1.778 0 1.017.517 1.758 1.286 1.758s1.285-.792 1.285-1.779c.005-1.005-.502-1.757-1.275-1.757z" class="cls-1" data-name="Path 320" transform="translate(-511.1 -67.265)"/>
            <path id="Path_321" d="M600.351 74.463h-1.093v-2.835c0-.873-.334-1.311-.993-1.311a1.139 1.139 0 0 0-1.1 1.209v2.937h-1.093v-3.526c0-.437-.011-.9-.041-1.412H597l.051.762h.03a1.766 1.766 0 0 1 1.56-.864c1.032 0 1.711.793 1.711 2.082v2.957z" class="cls-1" data-name="Path 321" transform="translate(-542.354 -67.26)"/>
            <path id="Path_322" d="M648.967 64.853h-1.2v2.4q0 .916.637.915a2.164 2.164 0 0 0 .487-.051l.03.833a2.433 2.433 0 0 1-.85.122c-.862 0-1.377-.477-1.377-1.727v-2.492h-.718v-.823h.718v-.9l1.073-.326v1.229h1.2z" class="cls-1" data-name="Path 322" transform="translate(-583.811 -61.765)"/>
            <path id="Path_323" d="M676.831 63.922h-1.1v-2.814c0-.884-.334-1.331-.993-1.331a1.073 1.073 0 0 0-1.093 1.168v2.976h-1.1v-7.2h1.1v2.966h.021a1.656 1.656 0 0 1 1.479-.8c1.043 0 1.681.812 1.681 2.1z" class="cls-1" data-name="Path 323" transform="translate(-605.881 -56.719)"/>
            <path id="Path_324" d="M709.448 72.211h-3.283a1.413 1.413 0 0 0 1.549 1.463 3.679 3.679 0 0 0 1.327-.234l.171.762a4.1 4.1 0 0 1-1.652.3 2.289 2.289 0 0 1-2.452-2.488 2.409 2.409 0 0 1 2.329-2.652 2.073 2.073 0 0 1 2.047 2.347 2.123 2.123 0 0 1-.036.502zm-1-.782c0-.762-.384-1.3-1.084-1.3a1.3 1.3 0 0 0-1.2 1.3z" class="cls-1" data-name="Path 324" transform="translate(-632.907 -67.214)"/>
        </g>
    </g>
</svg>
