<svg xmlns="http://www.w3.org/2000/svg" width="100" height="100" viewBox="0 0 100 100">
    <defs>
        <style>
            .cls-1{fill:url(#linear-gradient)}.cls-2{fill:#fff}
        </style>
        <linearGradient id="linear-gradient" x1="1.81" x2="-.551" y1="-.738" y2="1.493" gradientUnits="objectBoundingBox">
            <stop offset="0" stop-color="#f7b200"/>
            <stop offset=".147" stop-color="#f7ab00"/>
            <stop offset=".353" stop-color="#f79900"/>
            <stop offset=".594" stop-color="#f77b00"/>
            <stop offset=".859" stop-color="#f75100"/>
            <stop offset=".944" stop-color="#f74300"/>
        </linearGradient>
    </defs>
    <g id="Group_32" data-name="Group 32" transform="translate(-210 -10)">
        <rect id="Rectangle_14" width="100" height="100" class="cls-1" data-name="Rectangle 14" rx="20" transform="translate(210 10)"/>
        <g id="Group_30" data-name="Group 30" transform="translate(225.089 20.833)">
            <path id="Path_69" d="M294.755 71.664h-19.042a1.058 1.058 0 1 1 0-2.116h19.042a1.059 1.059 0 0 0 1.057-1.058V26.173a1.059 1.059 0 0 0-1.057-1.058H231.28a1.059 1.059 0 0 0-1.058 1.058V68.49a1.059 1.059 0 0 0 1.058 1.058h19.042a1.058 1.058 0 1 1 0 2.116H231.28a3.177 3.177 0 0 1-3.173-3.174V26.173A3.177 3.177 0 0 1 231.28 23h63.475a3.177 3.177 0 0 1 3.173 3.173V68.49a3.177 3.177 0 0 1-3.173 3.174z" class="cls-2" data-name="Path 69" transform="translate(-228.107 -23)"/>
            <path id="Path_70" d="M275.712 38.665H260.9a1.058 1.058 0 1 1 0-2.116h14.81a1.058 1.058 0 1 1 0 2.116z" class="cls-2" data-name="Path 70" transform="translate(-233.396 -25.258)"/>
            <path id="Path_71" d="M289.254 50.09H240.59a1.058 1.058 0 1 1 0-2.116h48.663a1.058 1.058 0 1 1 0 2.116z" class="cls-2" data-name="Path 71" transform="translate(-230.011 -27.162)"/>
            <path id="Path_72" d="M289.147 57.707h-48.664a1.058 1.058 0 1 1 0-2.116h48.664a1.058 1.058 0 0 1 0 2.116z" class="cls-2" data-name="Path 72" transform="translate(-229.993 -28.432)"/>
            <g id="Group_29" data-name="Group 29" transform="translate(25.608 34.389)">
                <g id="Group_28" data-name="Group 28">
                    <path id="Path_73" d="M269.3 82.707a2.419 2.419 0 0 1-1.566-.575 2.426 2.426 0 0 1-3.323-.8 2.427 2.427 0 0 1-3-2 2.425 2.425 0 0 1-1.687-3.183 2.436 2.436 0 0 1-.359-3.4 2.419 2.419 0 0 1 1.021-3.452 2.422 2.422 0 0 1 2.412-2.683 2.421 2.421 0 0 1 3.053-1.387 2.418 2.418 0 0 1 3.556-.335 2.428 2.428 0 0 1 3.457 1.372 2.431 2.431 0 0 1 2.422 2.428 2.371 2.371 0 0 1-.022.318 2.422 2.422 0 0 1 1.187 3.311 2.42 2.42 0 0 1-.319 3.79 2.426 2.426 0 0 1-1.772 3.069 2.426 2.426 0 0 1-2.916 2.236 2.43 2.43 0 0 1-2.144 1.291zm-1.45-2.977h.073a.926.926 0 0 1 .824.691.572.572 0 0 0 1.127-.144.766.766 0 0 0-.013-.124.926.926 0 0 1 1.639-.753.573.573 0 0 0 1.018-.363.551.551 0 0 0-.107-.328.929.929 0 0 1 1.16-1.377.585.585 0 0 0 .819-.517.569.569 0 0 0-.248-.472.927.927 0 0 1 .607-1.687.612.612 0 0 0 .625-.57.575.575 0 0 0-.527-.571.927.927 0 0 1-.318-1.764.574.574 0 0 0-.237-1.1.7.7 0 0 0-.162.023.93.93 0 0 1-.878-1.565.6.6 0 0 0 .186-.423.59.59 0 0 0-.9-.469.927.927 0 0 1-1.419-1.03.561.561 0 0 0 .025-.167.573.573 0 0 0-1.082-.262.936.936 0 0 1-.932.487.926.926 0 0 1-.787-.7.572.572 0 0 0-1.127.128.926.926 0 0 1-1.687.512.568.568 0 0 0-.471-.249.575.575 0 0 0-.573.575.99.99 0 0 1-.387.964.926.926 0 0 1-1 .068.586.586 0 0 0-.87.489.578.578 0 0 0 .134.37.926.926 0 0 1-.841 1.51.572.572 0 0 0-.33 1.083.926.926 0 0 1-.105 1.717.573.573 0 0 0 .129 1.115.926.926 0 0 1 .459 1.677.571.571 0 0 0 .487 1.016.927.927 0 0 1 1.125 1.233.583.583 0 0 0-.044.217.575.575 0 0 0 .574.573.568.568 0 0 0 .448-.218.927.927 0 0 1 1.65.654.586.586 0 0 0 .569.642.574.574 0 0 0 .525-.345.927.927 0 0 1 .846-.546z" class="cls-2" data-name="Path 73" transform="translate(-258.836 -64.267)"/>
                    <path id="Path_74" d="M268.842 79.44a5.136 5.136 0 1 1 5.135-5.135 5.141 5.141 0 0 1-5.135 5.135zm0-8.418a3.282 3.282 0 1 0 3.282 3.283 3.287 3.287 0 0 0-3.282-3.284z" class="cls-2" data-name="Path 74" transform="translate(-259.647 -65.084)"/>
                </g>
                <path id="Path_75" d="M272.831 92.108a.925.925 0 0 1-.578-.2l-2.945-2.356-2.946 2.348a.927.927 0 0 1-1.506-.723v-7.604a.927.927 0 1 1 1.853 0v5.681l2.019-1.615a.928.928 0 0 1 1.158 0l2.018 1.615v-5.681a.927.927 0 1 1 1.853 0v7.608a.927.927 0 0 1-.927.927z" class="cls-2" data-name="Path 75" transform="translate(-259.839 -67.33)"/>
            </g>
            <path id="Path_76" d="M291 67.826h-13.326a.85.85 0 1 1 0-1.7H291a.876.876 0 0 0 .9-.849V31.3a.875.875 0 0 0-.9-.849h-53.85a.875.875 0 0 0-.9.849v33.979a.876.876 0 0 0 .9.849h13.328a.85.85 0 1 1 0 1.7H237.15a2.626 2.626 0 0 1-2.693-2.548V31.3a2.626 2.626 0 0 1 2.693-2.547H291a2.626 2.626 0 0 1 2.692 2.547v33.979A2.626 2.626 0 0 1 291 67.826z" class="cls-2" data-name="Path 76" transform="translate(-229.165 -23.959)"/>
        </g>
        <g id="Group_31" data-name="Group 31" transform="translate(230.394 86.667)">
            <path id="Path_77" d="M239.23 102.152a4.954 4.954 0 0 1 3.19.864 2.846 2.846 0 0 1 1.046 2.326 3.226 3.226 0 0 1-.325 1.423 2.237 2.237 0 0 1-.973 1.027 3.713 3.713 0 0 1 .919.6 3 3 0 0 1 .577.7 2.574 2.574 0 0 1 .306.811 4.722 4.722 0 0 1 .091.882 3.58 3.58 0 0 1-1.172 2.83 4.8 4.8 0 0 1-3.28 1.027h-3.749a1.481 1.481 0 0 1-1.045-.324 1.416 1.416 0 0 1-.342-1.081v-9.642a1.371 1.371 0 0 1 .379-1.009 1.4 1.4 0 0 1 1.045-.378h3.424zm.163 4.883a1.111 1.111 0 0 0 .865-.343 1.3 1.3 0 0 0 .324-.919.99.99 0 0 0-.378-.865 1.735 1.735 0 0 0-1.027-.27h-1.964v2.4h2.18zm1.352 4.667a1.382 1.382 0 0 0 .4-1.027c0-.883-.541-1.334-1.6-1.334h-2.315v2.759h2.361a1.544 1.544 0 0 0 1.154-.4z" class="cls-2" data-name="Path 77" transform="translate(-234.473 -102.025)"/>
            <path id="Path_78" d="M260.7 102.451a5.371 5.371 0 0 1 1.892 1.3 5.814 5.814 0 0 1 1.226 2.018 8.33 8.33 0 0 1 0 5.3 5.814 5.814 0 0 1-1.226 2.018 5.385 5.385 0 0 1-1.892 1.3 6.3 6.3 0 0 1-2.433.45 6.144 6.144 0 0 1-2.415-.45 5.478 5.478 0 0 1-1.874-1.3 5.84 5.84 0 0 1-1.226-2.018 8.345 8.345 0 0 1 0-5.3 5.84 5.84 0 0 1 1.226-2.018 5.464 5.464 0 0 1 1.874-1.3 6.129 6.129 0 0 1 2.415-.451 6.285 6.285 0 0 1 2.433.451zm-4.65 3.262a4.682 4.682 0 0 0 0 5.371 3.013 3.013 0 0 0 4.433 0 4.678 4.678 0 0 0 0-5.371 3.013 3.013 0 0 0-4.433 0z" class="cls-2" data-name="Path 78" transform="translate(-237.447 -102)"/>
            <path id="Path_79" d="M280.548 103.644a1.328 1.328 0 0 1 .415-1.009 1.531 1.531 0 0 1 2.017 0 1.289 1.289 0 0 1 .415.991v9.7a1.44 1.44 0 0 1-.361.973 1.214 1.214 0 0 1-.972.4 1.687 1.687 0 0 1-.7-.144 1.528 1.528 0 0 1-.558-.487l-4.6-6.019v5.28a1.275 1.275 0 0 1-.4.991 1.484 1.484 0 0 1-1.982 0 1.314 1.314 0 0 1-.4-1.009v-9.541a2.027 2.027 0 0 1 .072-.577 1.563 1.563 0 0 1 .253-.487 1.172 1.172 0 0 1 .433-.342 1.429 1.429 0 0 1 .649-.127 1.505 1.505 0 0 1 .63.127 1.355 1.355 0 0 1 .541.486l4.632 6.488v-5.748z" class="cls-2" data-name="Path 79" transform="translate(-240.966 -102.04)"/>
            <path id="Path_80" d="M297.748 102.195a6.073 6.073 0 0 1 2.325.432 4.83 4.83 0 0 1 1.784 1.243 5.764 5.764 0 0 1 1.135 1.947 7.548 7.548 0 0 1 .415 2.558 7.28 7.28 0 0 1-.433 2.559 5.8 5.8 0 0 1-1.19 1.965 5.334 5.334 0 0 1-1.8 1.262 5.626 5.626 0 0 1-2.271.45h-3.5a1.355 1.355 0 0 1-1.081-.378 1.506 1.506 0 0 1-.325-1.009V103.6a1.425 1.425 0 0 1 .343-1.009 1.4 1.4 0 0 1 1.081-.378h3.478zm-.2 9.966a2.684 2.684 0 0 0 2.253-.973 4.478 4.478 0 0 0 .758-2.793 4.227 4.227 0 0 0-.775-2.757 2.85 2.85 0 0 0-2.325-.955h-1.8v7.461h1.893z" class="cls-2" data-name="Path 80" transform="translate(-244.196 -102.033)"/>
        </g>
    </g>
</svg>
