<svg xmlns="http://www.w3.org/2000/svg" width="100" height="100" viewBox="0 0 100 100">
    <defs>
        <style>
            .cls-1{fill:url(#linear-gradient)}.cls-2{fill:#fff}
        </style>
        <linearGradient id="linear-gradient" x1="1.81" x2="-.551" y1="-.738" y2="1.493" gradientUnits="objectBoundingBox">
            <stop offset="0" stop-color="#f7b200"/>
            <stop offset=".147" stop-color="#f7ab00"/>
            <stop offset=".353" stop-color="#f79900"/>
            <stop offset=".594" stop-color="#f77b00"/>
            <stop offset=".859" stop-color="#f75100"/>
            <stop offset=".944" stop-color="#f74300"/>
        </linearGradient>
    </defs>
    <g id="Group_61" data-name="Group 61" transform="translate(-630 -10)">
        <rect id="Rectangle_17" width="100" height="100" class="cls-1" data-name="Rectangle 17" rx="20" transform="translate(630 10)"/>
        <g id="Group_57" data-name="Group 57" transform="translate(638.814 76.667)">
            <path id="Path_150" d="M647.1 93.279a15.703 15.703 0 0 0-.458-.472 2.521 2.521 0 0 0-.444-.347 1.585 1.585 0 0 0-.5-.208 2.813 2.813 0 0 0-.639-.069 2.064 2.064 0 0 0-1.692.762 3.281 3.281 0 0 0-.623 2.122 2.923 2.923 0 0 0 .652 2.011 2.356 2.356 0 0 0 1.858.721 2.75 2.75 0 0 0 .623-.069 1.962 1.962 0 0 0 .5-.194 2.431 2.431 0 0 0 .444-.319c.138-.125.291-.263.443-.416a.925.925 0 0 1 .318-.208 1.059 1.059 0 0 1 .361-.055.677.677 0 0 1 .374.1 1.238 1.238 0 0 1 .292.249 1.027 1.027 0 0 1 .194.305.946.946 0 0 1 .07.319 1.641 1.641 0 0 1-.07.43 1.258 1.258 0 0 1-.249.458 4.732 4.732 0 0 1-.527.513 3.568 3.568 0 0 1-.735.485 5.12 5.12 0 0 1-.957.36 4.636 4.636 0 0 1-1.207.14 4.722 4.722 0 0 1-1.858-.347 4.144 4.144 0 0 1-1.428-1 4.529 4.529 0 0 1-.93-1.539 5.7 5.7 0 0 1-.333-2 5.833 5.833 0 0 1 .33-2.011 4.532 4.532 0 0 1 .93-1.568 4.4 4.4 0 0 1 3.3-1.4 4.618 4.618 0 0 1 1.457.208 5.109 5.109 0 0 1 1.068.485 3.453 3.453 0 0 1 .708.555 5.138 5.138 0 0 1 .373.43 1.373 1.373 0 0 1 .153.374 1.692 1.692 0 0 1 .042.375.929.929 0 0 1-.1.458 1.161 1.161 0 0 1-.249.319.971.971 0 0 1-.333.18 1.035 1.035 0 0 1-.333.055 1.161 1.161 0 0 1-.374-.055.861.861 0 0 1-.347-.222z" class="cls-2" data-name="Path 150" transform="translate(-640.577 -90.006)"/>
            <path id="Path_151" d="M662.405 90.347a4.128 4.128 0 0 1 1.456 1 4.482 4.482 0 0 1 .939 1.553 6.415 6.415 0 0 1 0 4.077 4.467 4.467 0 0 1-.943 1.553 4.119 4.119 0 0 1-1.456 1 4.84 4.84 0 0 1-1.872.348 4.722 4.722 0 0 1-1.858-.348 4.2 4.2 0 0 1-1.443-1 4.479 4.479 0 0 1-.943-1.553 6.4 6.4 0 0 1 0-4.077 4.494 4.494 0 0 1 .943-1.553 4.206 4.206 0 0 1 1.443-1 4.722 4.722 0 0 1 1.862-.347 4.84 4.84 0 0 1 1.872.347zm-3.578 2.51a3.6 3.6 0 0 0 0 4.132 2.317 2.317 0 0 0 3.412 0 3.6 3.6 0 0 0 0-4.132 2.317 2.317 0 0 0-3.412 0z" class="cls-2" data-name="Path 151" transform="translate(-643.14 -90)"/>
            <path id="Path_152" d="M678.109 90.86a1.493 1.493 0 0 1 .3-.444.777.777 0 0 1 .569-.208 1.316 1.316 0 0 1 .8.222.77.77 0 0 1 .3.666 1.41 1.41 0 0 1-.042.347 2.241 2.241 0 0 1-.111.319l-2.968 7.127a1.789 1.789 0 0 1-.4.625.912.912 0 0 1-.679.249 1 1 0 0 1-.707-.249 1.648 1.648 0 0 1-.416-.625l-3.051-7.2c-.014-.042-.028-.111-.056-.208a1.067 1.067 0 0 1-.042-.292.936.936 0 0 1 .083-.388 1.115 1.115 0 0 1 .568-.555.926.926 0 0 1 .375-.083 1.039 1.039 0 0 1 1.026.708l2.261 5.533 2.191-5.589z" class="cls-2" data-name="Path 152" transform="translate(-645.75 -90.028)"/>
            <path id="Path_153" d="M693.319 97.889a1.059 1.059 0 0 1 .748.25 1.042 1.042 0 0 1 0 1.387 1.062 1.062 0 0 1-.748.249h-4.938a1.024 1.024 0 0 1-.79-.291 1.107 1.107 0 0 1-.278-.777V91.3a1.057 1.057 0 0 1 .292-.777 1.111 1.111 0 0 1 .818-.292h4.909a1.062 1.062 0 0 1 .749.25 1.024 1.024 0 0 1 .014 1.387 1.066 1.066 0 0 1-.749.249H689.5v1.859h2.317a1.161 1.161 0 0 1 .776.249.971.971 0 0 1 0 1.388 1.123 1.123 0 0 1-.763.249h-2.316v1.969h3.855z" class="cls-2" data-name="Path 153" transform="translate(-648.366 -90.039)"/>
            <path id="Path_154" d="M708.406 93.4a3.315 3.315 0 0 1-.416 1.678 2.751 2.751 0 0 1-1.248 1.123l1.207 1.429a2.142 2.142 0 0 1 .4.623 1.585 1.585 0 0 1 .083.513 1.02 1.02 0 0 1-1.068.971 1.167 1.167 0 0 1-.624-.167 1.761 1.761 0 0 1-.472-.444l-1.886-2.5h-.882v2.038a1.069 1.069 0 1 1-2.136 0v-7.4a1 1 0 0 1 1.068-1.068h2.51a4.314 4.314 0 0 1 1.443.236 3.262 3.262 0 0 1 1.109.652 2.84 2.84 0 0 1 .707 1 3.237 3.237 0 0 1 .25 1.29zm-2.593 1a1.264 1.264 0 0 0 .374-1 1.213 1.213 0 0 0-.374-.957 1.375 1.375 0 0 0-.943-.333h-1.4v2.622h1.43a1.325 1.325 0 0 0 .913-.332z" class="cls-2" data-name="Path 154" transform="translate(-650.708 -90.033)"/>
            <path id="Path_155" d="M721.58 97.889a1.061 1.061 0 0 1 .749.25 1.044 1.044 0 0 1 0 1.387 1.064 1.064 0 0 1-.749.249h-4.937a1.024 1.024 0 0 1-.79-.291 1.106 1.106 0 0 1-.278-.777V91.3a1.054 1.054 0 0 1 .292-.777 1.107 1.107 0 0 1 .818-.292h4.91a1.059 1.059 0 0 1 .748.25 1.024 1.024 0 0 1 .014 1.387 1.066 1.066 0 0 1-.749.249h-3.842v1.859h2.316a1.166 1.166 0 0 1 .778.249.973.973 0 0 1 0 1.388 1.127 1.127 0 0 1-.763.249h-2.317v1.969h3.856z" class="cls-2" data-name="Path 155" transform="translate(-653.077 -90.039)"/>
            <path id="Path_156" d="M733.406 90.15a4.668 4.668 0 0 1 1.788.333 3.727 3.727 0 0 1 1.373.957 4.421 4.421 0 0 1 .873 1.5 5.818 5.818 0 0 1 .319 1.969 5.62 5.62 0 0 1-.332 1.97 4.464 4.464 0 0 1-.915 1.511 4.1 4.1 0 0 1-1.387.971 4.305 4.305 0 0 1-1.747.347h-2.691a1.044 1.044 0 0 1-.832-.291 1.163 1.163 0 0 1-.249-.777v-7.408a1.1 1.1 0 0 1 .263-.777 1.086 1.086 0 0 1 .832-.292h2.677zm-.153 7.669a2.07 2.07 0 0 0 1.733-.748 3.45 3.45 0 0 0 .582-2.15 3.249 3.249 0 0 0-.6-2.122 2.191 2.191 0 0 0-1.789-.735H731.8v5.741h1.457z" class="cls-2" data-name="Path 156" transform="translate(-655.415 -90.025)"/>
            <path id="Path_157" d="M650.623 106.669a1.485 1.485 0 0 1 .361-.569.845.845 0 0 1 .624-.249 1.309 1.309 0 0 1 .763.235.759.759 0 0 1 .333.666c0 .069-.014.167-.028.292a1.908 1.908 0 0 1-.111.416l-2.608 7.2a1.188 1.188 0 0 1-.416.541 1 1 0 0 1-.583.18 1.087 1.087 0 0 1-.6-.194 1.029 1.029 0 0 1-.417-.541l-1.164-3.592-1.193 3.592a1.052 1.052 0 0 1-.388.541 1 1 0 0 1-.583.181 1.008 1.008 0 0 1-.611-.194 1.127 1.127 0 0 1-.374-.541l-2.579-7.171a2.086 2.086 0 0 1-.153-.707.875.875 0 0 1 .305-.652 1.185 1.185 0 0 1 .846-.291.819.819 0 0 1 .665.263 1.679 1.679 0 0 1 .333.6l1.609 4.993 1.193-3.592a1.517 1.517 0 0 1 .333-.583.914.914 0 0 1 .707-.25 1.151 1.151 0 0 1 .4.069.648.648 0 0 1 .278.181 1.757 1.757 0 0 1 .193.263 2.037 2.037 0 0 1 .139.305l1.193 3.606 1.582-5.034z" class="cls-2" data-name="Path 157" transform="translate(-640.631 -92.635)"/>
            <path id="Path_158" d="M660.666 113.462l-.485 1.262a.962.962 0 0 1-.389.513 1.151 1.151 0 0 1-.6.138 1.1 1.1 0 0 1-.777-.263.922.922 0 0 1-.291-.708 1.919 1.919 0 0 1 .028-.319.652.652 0 0 1 .083-.236l3.078-7.17a1.687 1.687 0 0 1 .472-.652 1.308 1.308 0 0 1 1.5 0 1.718 1.718 0 0 1 .485.652l3.078 7.17a.907.907 0 0 1 .1.444.987.987 0 0 1-.332.777 1.174 1.174 0 0 1-.8.292 1.043 1.043 0 0 1-.624-.167 1.092 1.092 0 0 1-.36-.486l-.5-1.276zm2.954-1.775l-1.138-2.9-1.123 2.9z" class="cls-2" data-name="Path 158" transform="translate(-643.502 -92.632)"/>
            <path id="Path_159" d="M680.769 109.029a3.319 3.319 0 0 1-.416 1.678 2.756 2.756 0 0 1-1.248 1.123l1.207 1.428a2.145 2.145 0 0 1 .4.624 1.585 1.585 0 0 1 .083.512 1.007 1.007 0 0 1-.277.652.994.994 0 0 1-.791.32 1.169 1.169 0 0 1-.624-.167 1.761 1.761 0 0 1-.472-.444l-1.886-2.5h-.888v2.045a1.069 1.069 0 1 1-2.136 0v-7.406a1 1 0 0 1 1.068-1.068h2.51a4.306 4.306 0 0 1 1.443.236 3.258 3.258 0 0 1 1.11.652 2.843 2.843 0 0 1 .707 1 3.237 3.237 0 0 1 .25 1.29zm-2.594 1a1.265 1.265 0 0 0 .375-1 1.211 1.211 0 0 0-.375-.957 1.375 1.375 0 0 0-.943-.333h-1.4v2.622h1.429a1.328 1.328 0 0 0 .914-.333z" class="cls-2" data-name="Path 159" transform="translate(-646.102 -92.638)"/>
            <path id="Path_160" d="M694.483 109.029a3.31 3.31 0 0 1-.416 1.678 2.752 2.752 0 0 1-1.248 1.123l1.207 1.428a2.18 2.18 0 0 1 .4.624 1.605 1.605 0 0 1 .083.512 1.023 1.023 0 0 1-1.068.972 1.169 1.169 0 0 1-.624-.167 1.786 1.786 0 0 1-.472-.444l-1.886-2.5h-.888v2.045a1.069 1.069 0 1 1-2.136 0v-7.406a1 1 0 0 1 1.068-1.068h2.511a4.313 4.313 0 0 1 1.443.236 3.255 3.255 0 0 1 1.109.652 2.846 2.846 0 0 1 .708 1 3.238 3.238 0 0 1 .249 1.29zm-2.593 1a1.267 1.267 0 0 0 .373-1 1.212 1.212 0 0 0-.373-.957 1.379 1.379 0 0 0-.944-.333h-1.4v2.622h1.428a1.332 1.332 0 0 0 .917-.333z" class="cls-2" data-name="Path 160" transform="translate(-648.387 -92.638)"/>
            <path id="Path_161" d="M703.008 113.462l-.485 1.262a.963.963 0 0 1-.389.513 1.153 1.153 0 0 1-.6.138 1.1 1.1 0 0 1-.778-.263.922.922 0 0 1-.291-.708 1.912 1.912 0 0 1 .028-.319.667.667 0 0 1 .082-.236l3.079-7.17a1.687 1.687 0 0 1 .472-.652 1.306 1.306 0 0 1 1.5 0 1.712 1.712 0 0 1 .486.652l3.078 7.17a.907.907 0 0 1 .1.444.987.987 0 0 1-.333.777 1.174 1.174 0 0 1-.8.292 1.043 1.043 0 0 1-.624-.167 1.092 1.092 0 0 1-.36-.486l-.5-1.276zm2.953-1.775l-1.137-2.9-1.123 2.9z" class="cls-2" data-name="Path 161" transform="translate(-650.559 -92.632)"/>
            <path id="Path_162" d="M721.527 106.891a1.025 1.025 0 0 1 .318-.777 1.184 1.184 0 0 1 1.554 0 1 1 0 0 1 .318.763v7.461a1.113 1.113 0 0 1-.277.749.934.934 0 0 1-.748.305 1.3 1.3 0 0 1-.542-.111 1.176 1.176 0 0 1-.429-.375l-3.537-4.632v4.063a.987.987 0 0 1-.305.763 1.146 1.146 0 0 1-1.526 0 1.019 1.019 0 0 1-.3-.778v-7.337a1.581 1.581 0 0 1 .055-.443 1.228 1.228 0 0 1 .2-.375.909.909 0 0 1 .333-.262 1.1 1.1 0 0 1 .5-.1 1.159 1.159 0 0 1 .486.1 1.043 1.043 0 0 1 .416.374l3.564 4.993v-4.424z" class="cls-2" data-name="Path 162" transform="translate(-653.156 -92.635)"/>
            <path id="Path_163" d="M737.273 105.792a1.159 1.159 0 0 1 .776.25.972.972 0 0 1 0 1.387 1.122 1.122 0 0 1-.763.25H735.3v6.573a1.069 1.069 0 1 1-2.136 0v-6.573h-1.982a1.125 1.125 0 0 1-.763-.25.972.972 0 0 1 0-1.387 1.163 1.163 0 0 1 .777-.25h6.075z" class="cls-2" data-name="Path 163" transform="translate(-655.503 -92.632)"/>
        </g>
        <g id="Group_60" data-name="Group 60" transform="translate(643.319 20.833)">
            <path id="Path_164" d="M718.764 53.852a.964.964 0 0 1-.964-.964v-27a.965.965 0 0 0-.963-.964H670.56a.965.965 0 0 0-.964.964v11.574a.964.964 0 0 1-1.928 0v-11.57A2.9 2.9 0 0 1 670.56 23h46.277a2.9 2.9 0 0 1 2.892 2.892v27a.964.964 0 0 1-.965.96z" class="cls-2" data-name="Path 164" transform="translate(-649.597 -23)"/>
            <path id="Path_165" d="M668.631 63.3a.964.964 0 0 1-.964-.964V45.945a.964.964 0 0 1 1.928 0v16.389a.964.964 0 0 1-.964.966z" class="cls-2" data-name="Path 165" transform="translate(-649.597 -26.663)"/>
            <path id="Path_166" d="M705.267 75.254H670.56a2.9 2.9 0 0 1-2.893-2.892V71.4a.964.964 0 1 1 1.928 0v.963a.965.965 0 0 0 .964.964h34.707a.964.964 0 1 1 0 1.928z" class="cls-2" data-name="Path 166" transform="translate(-649.597 -30.906)"/>
            <path id="Path_167" d="M668.631 34.184a.964.964 0 0 1 0-1.928h50.133a.964.964 0 1 1 0 1.928z" class="cls-2" data-name="Path 167" transform="translate(-649.597 -24.542)"/>
            <path id="Path_168" d="M712.594 73.133a.964.964 0 0 1-.964-.964V60.6a2.9 2.9 0 0 1 2.892-2.893h11.569a.964.964 0 0 1 .682 1.646l-13.5 13.5a.967.967 0 0 1-.679.28zm1.927-13.5a.964.964 0 0 0-.963.964v9.242l10.205-10.206z" class="cls-2" data-name="Path 168" transform="translate(-656.924 -28.784)"/>
            <g id="Group_58" data-name="Group 58" transform="translate(23.488 14.159)">
                <path id="Path_169" d="M716.5 40.51a.964.964 0 0 0 .276 1.908l3.317-.393.393 3.317a.965.965 0 0 0 1.072.844.981.981 0 0 0 .844-1.07l-.506-4.274a.964.964 0 0 0-1.068-.842l-4.275.5z" class="cls-2" data-name="Path 169" transform="translate(-681.09 -39.991)"/>
                <path id="Path_170" d="M675.132 56.933a.964.964 0 0 1-.689-1.638l2.918-2.986a.964.964 0 0 1 1.308-.066l2.614 2.186 1.2-.959a.964.964 0 0 1 1.2 1.506l-1.818 1.452a.963.963 0 0 1-1.22-.013l-2.535-2.119-2.3 2.348a.962.962 0 0 1-.678.289z" class="cls-2" data-name="Path 170" transform="translate(-674.168 -41.995)"/>
                <path id="Path_171" d="M706.615 42.429a.964.964 0 0 1 .6.092l4.51 2.316 2.121-2.327a.964.964 0 0 1 1.425 1.3l-2.617 2.873a.963.963 0 0 1-1.152.208l-4.448-2.283-9.12 11.978a.965.965 0 0 1-1.278.233l-8.933-5.586a.964.964 0 1 1 1.022-1.634l8.188 5.118L706.01 42.8a.961.961 0 0 1 .605-.371z" class="cls-2" data-name="Path 171" transform="translate(-676.352 -40.358)"/>
            </g>
            <path id="Path_172" d="M675.38 29.556h-.964a.964.964 0 1 1 0-1.928h.964a.964.964 0 0 1 0 1.928z" class="cls-2" data-name="Path 172" transform="translate(-650.561 -23.771)"/>
            <path id="Path_173" d="M682.321 29.556h-.964a.964.964 0 1 1 0-1.928h.964a.964.964 0 1 1 0 1.928z" class="cls-2" data-name="Path 173" transform="translate(-651.718 -23.771)"/>
            <g id="Group_59" data-name="Group 59" transform="translate(0 13.247)">
                <path id="Path_174" d="M672.1 63.951a12.527 12.527 0 1 1 8.758-3.562 12.494 12.494 0 0 1-8.758 3.562zm0-23.127a10.6 10.6 0 1 0 7.587 3.189 10.569 10.569 0 0 0-7.587-3.19z" class="cls-2" data-name="Path 174" transform="translate(-648.248 -38.896)"/>
                <path id="Path_175" d="M658.843 69.068a.964.964 0 0 1-.679-1.648l4.7-4.667a.964.964 0 1 1 1.358 1.369l-4.7 4.666a.959.959 0 0 1-.679.28z" class="cls-2" data-name="Path 175" transform="translate(-647.965 -42.826)"/>
                <path id="Path_176" d="M649.84 79.275a3.846 3.846 0 0 1-2.759-1.159 3.857 3.857 0 0 1 .064-5.454l6.895-6.737a.913.913 0 0 1 .685-.275.965.965 0 0 1 .678.291l4.043 4.137a.964.964 0 0 1-.015 1.363l-6.9 6.737a3.843 3.843 0 0 1-2.691 1.097zm-1.381-2.507a1.931 1.931 0 0 0 2.727.032l6.207-6.064-2.7-2.758-6.205 6.063a1.929 1.929 0 0 0-.033 2.727z" class="cls-2" data-name="Path 176" transform="translate(-645.983 -43.355)"/>
            </g>
        </g>
    </g>
</svg>
