<svg xmlns="http://www.w3.org/2000/svg" width="100" height="100" viewBox="0 0 100 100">
    <defs>
        <style>
            .cls-1{fill:#fff}.cls-2{fill:url(#linear-gradient)}
        </style>
        <linearGradient id="linear-gradient" x1="1.81" x2="-.551" y1="-.738" y2="1.493" gradientUnits="objectBoundingBox">
            <stop offset="0" stop-color="#f7b200"/>
            <stop offset=".147" stop-color="#f7ab00"/>
            <stop offset=".353" stop-color="#f79900"/>
            <stop offset=".594" stop-color="#f77b00"/>
            <stop offset=".859" stop-color="#f75100"/>
            <stop offset=".944" stop-color="#f74300"/>
        </linearGradient>
    </defs>
    <g id="Group_56" data-name="Group 56" transform="translate(-490 -10)">
        <g id="Group_53" data-name="Group 53" transform="translate(504.688 20.833)">
            <g id="Group_52" data-name="Group 52" transform="translate(0 8.021)">
                <path id="Path_109" d="M508.772 61.43a1.147 1.147 0 0 1-.772-1.991l11.017-10.081a1.146 1.146 0 0 1 1.548 1.691l-11.02 10.08a1.141 1.141 0 0 1-.773.301z" class="cls-1" data-name="Path 109" transform="translate(-507.625 -35.364)"/>
                <path id="Path_110" d="M537.633 55.028a1.131 1.131 0 0 1-.538-.135l-8.367-4.472a1.146 1.146 0 0 1 1.08-2.021l8.367 4.472a1.146 1.146 0 0 1-.542 2.156z" class="cls-1" data-name="Path 110" transform="translate(-511.041 -35.232)"/>
                <path id="Path_111" d="M545.848 52.9a1.146 1.146 0 0 1-.84-1.926l10.046-10.819a1.146 1.146 0 0 1 1.68 1.56l-10.047 10.82a1.145 1.145 0 0 1-.839.365z" class="cls-1" data-name="Path 111" transform="translate(-513.805 -33.819)"/>
                <path id="Path_112" d="M572.265 47.592a1.137 1.137 0 0 1-.672-.219l-7.941-5.779A1.146 1.146 0 1 1 565 39.74l7.941 5.779a1.146 1.146 0 0 1-.676 2.073z" class="cls-1" data-name="Path 112" transform="translate(-516.884 -33.774)"/>
                <path id="Path_113" d="M580.486 46.654a1.146 1.146 0 0 1-.81-1.956l8.987-8.987a1.146 1.146 0 0 1 1.62 1.62l-8.983 8.987a1.14 1.14 0 0 1-.814.336z" class="cls-1" data-name="Path 113" transform="translate(-519.578 -33.083)"/>
                <path id="Path_114" d="M560.333 41.792a4.583 4.583 0 1 1 4.583-4.583 4.588 4.588 0 0 1-4.583 4.583zm0-6.875a2.292 2.292 0 1 0 2.292 2.292 2.294 2.294 0 0 0-2.292-2.292z" class="cls-1" data-name="Path 114" transform="translate(-515.646 -32.625)"/>
                <path id="Path_115" d="M576.833 54.167a4.583 4.583 0 1 1 4.583-4.583 4.588 4.588 0 0 1-4.583 4.583zm0-6.875a2.292 2.292 0 1 0 2.292 2.292 2.294 2.294 0 0 0-2.292-2.292z" class="cls-1" data-name="Path 115" transform="translate(-518.396 -34.688)"/>
                <path id="Path_116" d="M542.458 61.042a4.583 4.583 0 1 1 4.583-4.583 4.588 4.588 0 0 1-4.583 4.583zm0-6.875a2.292 2.292 0 1 0 2.292 2.292 2.294 2.294 0 0 0-2.292-2.292z" class="cls-1" data-name="Path 116" transform="translate(-512.667 -35.833)"/>
                <path id="Path_117" d="M524.583 51.417a4.583 4.583 0 1 1 4.583-4.583 4.588 4.588 0 0 1-4.583 4.583zm0-6.875a2.292 2.292 0 1 0 2.292 2.292 2.294 2.294 0 0 0-2.292-2.292z" class="cls-1" data-name="Path 117" transform="translate(-509.688 -34.229)"/>
                <path id="Path_118" d="M590.125 43.4a1.146 1.146 0 0 1-1.146-1.146v-4.587H584.4a1.146 1.146 0 0 1 0-2.292h5.729a1.146 1.146 0 0 1 1.146 1.146v5.729a1.146 1.146 0 0 1-1.15 1.15z" class="cls-1" data-name="Path 118" transform="translate(-520.229 -33.083)"/>
            </g>
            <path id="Path_119" d="M525.27 83.5a1.146 1.146 0 0 1-1.146-1.146V57.146A1.146 1.146 0 0 1 525.271 56a1.146 1.146 0 0 1 1.146 1.146v25.208a1.146 1.146 0 0 1-1.147 1.146z" class="cls-1" data-name="Path 119" transform="translate(-510.375 -28.5)"/>
            <path id="Path_120" d="M543.145 85.1A1.146 1.146 0 0 1 542 83.958V66.771a1.146 1.146 0 0 1 1.146-1.146 1.146 1.146 0 0 1 1.146 1.146v17.187a1.146 1.146 0 0 1-1.147 1.142z" class="cls-1" data-name="Path 120" transform="translate(-513.354 -30.104)"/>
            <path id="Path_121" d="M561.021 81.9a1.146 1.146 0 0 1-1.146-1.146V47.521a1.146 1.146 0 0 1 1.146-1.146 1.146 1.146 0 0 1 1.146 1.146V80.75a1.146 1.146 0 0 1-1.146 1.15z" class="cls-1" data-name="Path 121" transform="translate(-516.333 -26.896)"/>
            <path id="Path_122" d="M577.52 83.958a1.146 1.146 0 0 1-1.146-1.146V59.9a1.146 1.146 0 0 1 1.146-1.146 1.146 1.146 0 0 1 1.146 1.146v22.912a1.146 1.146 0 0 1-1.146 1.146z" class="cls-1" data-name="Path 122" transform="translate(-519.083 -28.958)"/>
            <path id="Path_123" d="M577.521 78h-69.9V24.146a1.146 1.146 0 0 1 2.292 0v51.562h67.6a1.146 1.146 0 1 1 0 2.292z" class="cls-1" data-name="Path 123" transform="translate(-507.625 -23)"/>
        </g>
        <rect id="Rectangle_16" width="100" height="100" class="cls-2" data-name="Rectangle 16" rx="20" transform="translate(490 10)"/>
        <g id="Group_54" data-name="Group 54" transform="translate(498.333 89.683)">
            <path id="Path_124" d="M503.673 105.812a4.523 4.523 0 0 1 1.73.322 3.613 3.613 0 0 1 1.327.925 4.3 4.3 0 0 1 .844 1.448 5.6 5.6 0 0 1 .308 1.9 5.392 5.392 0 0 1-.322 1.9 4.3 4.3 0 0 1-.885 1.462 3.951 3.951 0 0 1-1.341.938 4.168 4.168 0 0 1-1.689.335h-2.6a1.008 1.008 0 0 1-.8-.281 1.124 1.124 0 0 1-.242-.751v-7.16a1.064 1.064 0 0 1 .255-.751 1.048 1.048 0 0 1 .8-.282h2.587zm-.148 7.414a2 2 0 0 0 1.677-.723 3.339 3.339 0 0 0 .563-2.078 3.143 3.143 0 0 0-.577-2.052 2.12 2.12 0 0 0-1.729-.711h-1.341v5.551h1.408z" class="cls-1" data-name="Path 124" transform="translate(-500 -105.651)"/>
            <path id="Path_125" d="M517.056 113.294a1.027 1.027 0 0 1 .724.241 1.009 1.009 0 0 1 0 1.341 1.027 1.027 0 0 1-.724.242h-4.772a.993.993 0 0 1-.764-.282 1.071 1.071 0 0 1-.268-.751v-7.16a1.024 1.024 0 0 1 .282-.751 1.076 1.076 0 0 1 .791-.281h4.747a1.025 1.025 0 0 1 .723.241.879.879 0 0 1 .268.671.866.866 0 0 1-.255.67 1.025 1.025 0 0 1-.723.242h-3.714v1.8h2.239a1.122 1.122 0 0 1 .751.241.939.939 0 0 1 0 1.341 1.086 1.086 0 0 1-.737.242h-2.239v1.9h3.727z" class="cls-1" data-name="Path 125" transform="translate(-501.875 -105.665)"/>
            <path id="Path_126" d="M527.881 108.958a3.2 3.2 0 0 1-.4 1.622 2.655 2.655 0 0 1-1.207 1.086l1.167 1.381a2.1 2.1 0 0 1 .388.6 1.524 1.524 0 0 1 .081.5.974.974 0 0 1-.268.631.961.961 0 0 1-.764.308 1.132 1.132 0 0 1-.6-.161 1.734 1.734 0 0 1-.456-.429l-1.823-2.413h-.858v1.971a1.033 1.033 0 1 1-2.065 0v-7.16a.969.969 0 0 1 1.033-1.032h2.427a4.168 4.168 0 0 1 1.4.228 3.155 3.155 0 0 1 1.073.63 2.751 2.751 0 0 1 .683.966 3.132 3.132 0 0 1 .242 1.247zm-2.507.965a1.222 1.222 0 0 0 .362-.965 1.17 1.17 0 0 0-.362-.925 1.328 1.328 0 0 0-.912-.322h-1.354v2.534h1.381a1.284 1.284 0 0 0 .884-.322z" class="cls-1" data-name="Path 126" transform="translate(-503.512 -105.659)"/>
            <path id="Path_127" d="M531.379 106.126a1.033 1.033 0 0 1 1.783.751v7.16a1.033 1.033 0 1 1-2.065 0v-7.16a1.022 1.022 0 0 1 .282-.751z" class="cls-1" data-name="Path 127" transform="translate(-505.183 -105.656)"/>
            <path id="Path_128" d="M541.509 106.5a1.453 1.453 0 0 1 .294-.429.751.751 0 0 1 .55-.2 1.27 1.27 0 0 1 .778.214.742.742 0 0 1 .295.643 1.355 1.355 0 0 1-.04.335 1.98 1.98 0 0 1-.107.308l-2.869 6.892a1.725 1.725 0 0 1-.388.6.882.882 0 0 1-.658.242.967.967 0 0 1-.683-.242 1.593 1.593 0 0 1-.4-.6l-2.949-6.958c-.014-.04-.027-.107-.054-.2a1.031 1.031 0 0 1-.04-.282.906.906 0 0 1 .08-.376 1.1 1.1 0 0 1 .228-.322 1.043 1.043 0 0 1 .322-.214.878.878 0 0 1 .362-.081 1 1 0 0 1 .992.684l2.186 5.349 2.118-5.4z" class="cls-1" data-name="Path 128" transform="translate(-505.872 -105.654)"/>
            <path id="Path_129" d="M546.894 113.242l-.469 1.221a.925.925 0 0 1-.375.5 1.119 1.119 0 0 1-.577.134 1.064 1.064 0 0 1-.751-.255.891.891 0 0 1-.282-.684 1.9 1.9 0 0 1 .027-.308.646.646 0 0 1 .081-.227l2.976-6.932a1.626 1.626 0 0 1 .457-.63 1.261 1.261 0 0 1 1.448 0 1.657 1.657 0 0 1 .469.63l2.977 6.932a.885.885 0 0 1 .094.429.953.953 0 0 1-.323.751 1.133 1.133 0 0 1-.778.282 1.012 1.012 0 0 1-.6-.161 1.06 1.06 0 0 1-.348-.47l-.482-1.233zm2.856-1.716l-1.1-2.8-1.086 2.8z" class="cls-1" data-name="Path 129" transform="translate(-507.407 -105.654)"/>
            <path id="Path_130" d="M562.388 105.828a1.124 1.124 0 0 1 .751.242.941.941 0 0 1 0 1.341 1.087 1.087 0 0 1-.737.241h-1.917v6.356a1.033 1.033 0 1 1-2.065 0v-6.356h-1.92a1.086 1.086 0 0 1-.737-.241.939.939 0 0 1 0-1.341 1.122 1.122 0 0 1 .751-.242h5.872z" class="cls-1" data-name="Path 130" transform="translate(-509.247 -105.654)"/>
            <path id="Path_131" d="M566.806 106.126a1.033 1.033 0 0 1 1.783.751v7.16a1.033 1.033 0 1 1-2.065 0v-7.16a1.022 1.022 0 0 1 .282-.751z" class="cls-1" data-name="Path 131" transform="translate(-511.087 -105.656)"/>
            <path id="Path_132" d="M576.936 106.5a1.442 1.442 0 0 1 .295-.429.75.75 0 0 1 .55-.2 1.272 1.272 0 0 1 .777.214.744.744 0 0 1 .3.643 1.309 1.309 0 0 1-.041.335 2.058 2.058 0 0 1-.107.308l-2.869 6.892a1.737 1.737 0 0 1-.389.6.88.88 0 0 1-.657.242.969.969 0 0 1-.684-.242 1.594 1.594 0 0 1-.4-.6l-2.949-6.958c-.013-.04-.027-.107-.053-.2a1 1 0 0 1-.041-.282.893.893 0 0 1 .081-.376 1.1 1.1 0 0 1 .228-.322 1.054 1.054 0 0 1 .322-.214.879.879 0 0 1 .362-.081 1 1 0 0 1 .992.684l2.186 5.349 2.118-5.4z" class="cls-1" data-name="Path 132" transform="translate(-511.777 -105.654)"/>
            <path id="Path_133" d="M587.878 113.294a1.027 1.027 0 0 1 .724.241 1.009 1.009 0 0 1 0 1.341 1.028 1.028 0 0 1-.724.242H583.1a.994.994 0 0 1-.764-.282 1.071 1.071 0 0 1-.267-.751v-7.16a1.02 1.02 0 0 1 .282-.751 1.076 1.076 0 0 1 .791-.281h4.746a1.027 1.027 0 0 1 .724.241.879.879 0 0 1 .268.671.869.869 0 0 1-.255.67 1.028 1.028 0 0 1-.724.242h-3.713v1.8h2.239a1.124 1.124 0 0 1 .751.241.941.941 0 0 1 0 1.341 1.088 1.088 0 0 1-.738.242h-2.24v1.9h3.727z" class="cls-1" data-name="Path 133" transform="translate(-513.679 -105.665)"/>
            <path id="Path_134" d="M594.961 113.127a3.169 3.169 0 0 0 .51-.04 1.838 1.838 0 0 0 .428-.121.88.88 0 0 0 .308-.228.533.533 0 0 0 .121-.362.649.649 0 0 0-.093-.348.932.932 0 0 0-.362-.295 4.326 4.326 0 0 0-.683-.282 25.78 25.78 0 0 0-1.059-.322 7.579 7.579 0 0 1-1.1-.389 3.231 3.231 0 0 1-.857-.55 1.974 1.974 0 0 1-.537-.778 2.962 2.962 0 0 1-.187-1.086 2.344 2.344 0 0 1 .282-1.167 2.551 2.551 0 0 1 .764-.844 3.621 3.621 0 0 1 1.126-.523 5 5 0 0 1 1.354-.174 5.837 5.837 0 0 1 1.354.134 3.787 3.787 0 0 1 1.127.483 1.382 1.382 0 0 1 .549.523 1.257 1.257 0 0 1 .161.59 1.077 1.077 0 0 1-.093.482 1.019 1.019 0 0 1-.242.322.933.933 0 0 1-.322.174 1.011 1.011 0 0 1-.322.053 1.186 1.186 0 0 1-.469-.08c-.121-.053-.255-.121-.389-.187-.2-.107-.4-.215-.6-.308a2.147 2.147 0 0 0-.885-.147 1.465 1.465 0 0 0-.925.214.6.6 0 0 0-.254.442.537.537 0 0 0 .093.322 1.059 1.059 0 0 0 .335.282 4.118 4.118 0 0 0 .631.282c.254.093.589.188.992.295q.544.14 1.046.322a3.21 3.21 0 0 1 .912.509 2.379 2.379 0 0 1 .643.805 2.6 2.6 0 0 1 .242 1.179 2.787 2.787 0 0 1-.228 1.1 2.328 2.328 0 0 1-.683.9 3.49 3.49 0 0 1-1.153.6 5.228 5.228 0 0 1-1.608.228 5.975 5.975 0 0 1-1.743-.228 3.442 3.442 0 0 1-1.207-.63 3.322 3.322 0 0 1-.4-.442.908.908 0 0 1-.2-.563.982.982 0 0 1 .121-.509 1.1 1.1 0 0 1 .282-.323.9.9 0 0 1 .322-.161 1.184 1.184 0 0 1 .268-.04.966.966 0 0 1 .4.081 2.38 2.38 0 0 1 .362.2 3.654 3.654 0 0 0 .871.456 3.168 3.168 0 0 0 1.073.161z" class="cls-1" data-name="Path 134" transform="translate(-515.221 -105.619)"/>
        </g>
        <g id="Group_55" data-name="Group 55" transform="translate(503.407 21.673)">
            <path id="Path_135" d="M507.269 63.6a1.18 1.18 0 0 1-.8-2.051l11.35-10.385a1.181 1.181 0 0 1 1.594 1.742l-11.35 10.385a1.176 1.176 0 0 1-.794.309z" class="cls-1" data-name="Path 135" transform="translate(-506.088 -28.482)"/>
            <path id="Path_136" d="M537 57a1.17 1.17 0 0 1-.555-.14l-8.62-4.607a1.18 1.18 0 1 1 1.112-2.082l8.62 4.607A1.181 1.181 0 0 1 537 57z" class="cls-1" data-name="Path 136" transform="translate(-509.607 -28.346)"/>
            <path id="Path_137" d="M545.465 54.811a1.181 1.181 0 0 1-.866-1.984l10.35-11.145a1.181 1.181 0 1 1 1.73 1.607L546.33 54.434a1.181 1.181 0 0 1-.865.377z" class="cls-1" data-name="Path 137" transform="translate(-512.454 -26.891)"/>
            <path id="Path_138" d="M572.68 49.342a1.174 1.174 0 0 1-.693-.226l-8.18-5.954a1.181 1.181 0 1 1 1.389-1.909l8.18 5.954a1.181 1.181 0 0 1-.7 2.135z" class="cls-1" data-name="Path 138" transform="translate(-515.627 -26.844)"/>
            <path id="Path_139" d="M581.149 48.376a1.18 1.18 0 0 1-.835-2.015l9.259-9.259a1.18 1.18 0 0 1 1.669 1.669l-9.259 9.259a1.175 1.175 0 0 1-.834.346z" class="cls-1" data-name="Path 139" transform="translate(-518.401 -26.133)"/>
            <path id="Path_140" d="M560.388 43.366a4.722 4.722 0 1 1 4.722-4.722 4.727 4.727 0 0 1-4.722 4.722zm0-7.083a2.361 2.361 0 1 0 2.361 2.361 2.364 2.364 0 0 0-2.361-2.36z" class="cls-1" data-name="Path 140" transform="translate(-514.351 -25.66)"/>
            <path id="Path_141" d="M577.386 56.115a4.722 4.722 0 1 1 4.722-4.722 4.727 4.727 0 0 1-4.722 4.722zm0-7.083a2.361 2.361 0 1 0 2.361 2.361 2.363 2.363 0 0 0-2.361-2.36z" class="cls-1" data-name="Path 141" transform="translate(-517.184 -27.785)"/>
            <path id="Path_142" d="M541.973 63.2a4.722 4.722 0 1 1 4.722-4.722 4.727 4.727 0 0 1-4.722 4.722zm0-7.082a2.361 2.361 0 1 0 2.361 2.361 2.364 2.364 0 0 0-2.361-2.364z" class="cls-1" data-name="Path 142" transform="translate(-511.282 -28.966)"/>
            <path id="Path_143" d="M523.559 53.282a4.722 4.722 0 1 1 4.722-4.722 4.727 4.727 0 0 1-4.722 4.722zm0-7.083a2.361 2.361 0 1 0 2.361 2.361 2.363 2.363 0 0 0-2.361-2.36z" class="cls-1" data-name="Path 143" transform="translate(-508.213 -27.313)"/>
            <path id="Path_144" d="M591.078 45.019a1.181 1.181 0 0 1-1.18-1.181v-4.721h-4.722a1.18 1.18 0 1 1 0-2.361h5.9a1.181 1.181 0 0 1 1.181 1.181v5.9a1.181 1.181 0 0 1-1.179 1.182z" class="cls-1" data-name="Path 144" transform="translate(-519.073 -26.133)"/>
            <path id="Path_145" d="M524.265 86.334a1.18 1.18 0 0 1-1.18-1.181V59.184A1.181 1.181 0 0 1 524.267 58a1.18 1.18 0 0 1 1.18 1.18v25.973a1.18 1.18 0 0 1-1.182 1.181z" class="cls-1" data-name="Path 145" transform="translate(-508.921 -29.674)"/>
            <path id="Path_146" d="M542.68 87.986a1.18 1.18 0 0 1-1.18-1.181V69.1a1.181 1.181 0 0 1 1.18-1.181 1.181 1.181 0 0 1 1.181 1.181v17.706a1.181 1.181 0 0 1-1.181 1.18z" class="cls-1" data-name="Path 146" transform="translate(-511.99 -31.326)"/>
            <path id="Path_147" d="M561.1 84.681a1.18 1.18 0 0 1-1.18-1.181V49.269a1.181 1.181 0 0 1 1.18-1.181 1.181 1.181 0 0 1 1.181 1.181V83.5a1.181 1.181 0 0 1-1.181 1.181z" class="cls-1" data-name="Path 147" transform="translate(-515.059 -28.021)"/>
            <path id="Path_148" d="M578.093 86.806a1.181 1.181 0 0 1-1.181-1.181V62.017a1.18 1.18 0 0 1 1.18-1.18 1.181 1.181 0 0 1 1.181 1.18v23.608a1.18 1.18 0 0 1-1.18 1.181z" class="cls-1" data-name="Path 148" transform="translate(-517.892 -30.146)"/>
            <path id="Path_149" d="M578.094 80.668h-72.006v-55.48a1.18 1.18 0 0 1 2.361 0v53.119h69.645a1.18 1.18 0 1 1 0 2.361z" class="cls-1" data-name="Path 149" transform="translate(-506.088 -24.008)"/>
        </g>
    </g>
</svg>
