<svg xmlns="http://www.w3.org/2000/svg" width="100" height="100" viewBox="0 0 100 100">
    <defs>
        <style>
            .cls-1{fill:url(#linear-gradient)}.cls-2{fill:#fff}
        </style>
        <linearGradient id="linear-gradient" x1="1.81" x2="-.551" y1="-.738" y2="1.493" gradientUnits="objectBoundingBox">
            <stop offset="0" stop-color="#f7b200"/>
            <stop offset=".147" stop-color="#f7ab00"/>
            <stop offset=".353" stop-color="#f79900"/>
            <stop offset=".594" stop-color="#f77b00"/>
            <stop offset=".859" stop-color="#f75100"/>
            <stop offset=".944" stop-color="#f74300"/>
        </linearGradient>
    </defs>
    <g id="Group_51" data-name="Group 51" transform="translate(-349.877 -10)">
        <rect id="Rectangle_15" width="100" height="100" class="cls-1" data-name="Rectangle 15" rx="20" transform="translate(349.877 10)"/>
        <g id="Group_33" data-name="Group 33" transform="translate(370.915 86.667)">
            <path id="Path_81" d="M382.7 102.076a1.39 1.39 0 0 1 .982.328 1.368 1.368 0 0 1 0 1.817 1.394 1.394 0 0 1-.982.327h-4.778v2.834h2.943a1.39 1.39 0 0 1 .982.327 1.368 1.368 0 0 1 0 1.817 1.39 1.39 0 0 1-.982.327h-2.943v3.271a1.448 1.448 0 0 1-.363 1.018 1.6 1.6 0 0 1-2.071 0 1.452 1.452 0 0 1-.363-1.018v-9.757a1.223 1.223 0 0 1 .4-.981 1.527 1.527 0 0 1 1.035-.363h6.177z" class="cls-2" data-name="Path 81" transform="translate(-375.123 -102.004)"/>
            <path id="Path_82" d="M400 103.457a1.4 1.4 0 1 1 2.8 0v6.05a6.253 6.253 0 0 1-.363 2.144 4.42 4.42 0 0 1-1.037 1.649 4.767 4.767 0 0 1-1.672 1.053 6.84 6.84 0 0 1-4.506 0 4.767 4.767 0 0 1-1.672-1.053 4.5 4.5 0 0 1-1.036-1.635 6.072 6.072 0 0 1-.363-2.126v-6.119a1.4 1.4 0 1 1 2.8 0v5.669a3.282 3.282 0 0 0 .6 2.2 3.063 3.063 0 0 0 3.853-.018 3.36 3.36 0 0 0 .6-2.235v-5.577z" class="cls-2" data-name="Path 82" transform="translate(-377.961 -102.004)"/>
            <path id="Path_83" d="M419.452 103.461a1.342 1.342 0 0 1 .418-1.017 1.547 1.547 0 0 1 2.035 0 1.3 1.3 0 0 1 .418 1v9.775a1.452 1.452 0 0 1-.363.981 1.224 1.224 0 0 1-.981.4 1.7 1.7 0 0 1-.708-.146 1.538 1.538 0 0 1-.564-.49l-4.633-6.068v5.323a1.287 1.287 0 0 1-.4 1 1.5 1.5 0 0 1-2 0 1.327 1.327 0 0 1-.4-1.018v-9.612a2.022 2.022 0 0 1 .073-.581 1.571 1.571 0 0 1 .254-.491 1.193 1.193 0 0 1 .436-.345 1.451 1.451 0 0 1 .654-.127 1.529 1.529 0 0 1 .636.127 1.367 1.367 0 0 1 .545.491l4.669 6.541z" class="cls-2" data-name="Path 83" transform="translate(-381.315 -102.007)"/>
            <path id="Path_84" d="M436.789 102a6.115 6.115 0 0 1 2.343.436 4.862 4.862 0 0 1 1.8 1.254 5.81 5.81 0 0 1 1.144 1.962 7.611 7.611 0 0 1 .418 2.58 7.32 7.32 0 0 1-.437 2.58 5.814 5.814 0 0 1-1.2 1.98 5.375 5.375 0 0 1-1.817 1.272 5.668 5.668 0 0 1-2.289.454h-3.524a1.37 1.37 0 0 1-1.091-.382 1.522 1.522 0 0 1-.327-1.018v-9.7a1.441 1.441 0 0 1 .345-1.017 1.417 1.417 0 0 1 1.09-.382h3.507zm-.2 10.048a2.707 2.707 0 0 0 2.271-.982 4.512 4.512 0 0 0 .763-2.816 4.257 4.257 0 0 0-.782-2.78 2.872 2.872 0 0 0-2.343-.963h-1.818v7.522h1.908z" class="cls-2" data-name="Path 84" transform="translate(-384.571 -102)"/>
        </g>
        <g id="Group_50" data-name="Group 50" transform="translate(365.895 20.3)">
            <g id="Group_46" data-name="Group 46" transform="translate(0 25.335)">
                <g id="Group_34" data-name="Group 34" transform="translate(0 17.482)">
                    <path id="Path_85" d="M380.4 82.824c-5.614 0-11.3-1.56-11.3-4.542s5.682-4.542 11.3-4.542 11.3 1.56 11.3 4.542-5.69 4.542-11.3 4.542zm0-7.145c-5.8 0-9.357 1.685-9.357 2.6s3.552 2.6 9.357 2.6 9.358-1.685 9.358-2.6-3.558-2.6-9.358-2.6z" class="cls-2" data-name="Path 85" transform="translate(-369.099 -73.74)"/>
                    <path id="Path_86" d="M380.4 88c-5.614 0-11.3-1.56-11.3-4.542V79a.97.97 0 0 1 1.939 0v4.466c0 .917 3.552 2.6 9.357 2.6s9.358-1.686 9.358-2.6V79a.97.97 0 0 1 1.939 0v4.466C391.692 86.444 386.01 88 380.4 88z" class="cls-2" data-name="Path 86" transform="translate(-369.099 -74.454)"/>
                </g>
                <g id="Group_35" data-name="Group 35" transform="translate(20.704 21.054)">
                    <path id="Path_87" d="M405.242 83.539c-5.614 0-11.3-1.56-11.3-4.542a.97.97 0 0 1 1.94 0c0 .918 3.552 2.6 9.358 2.6s9.36-1.683 9.36-2.597a.97.97 0 0 1 1.939 0c-.001 2.979-5.684 4.539-11.297 4.539z" class="cls-2" data-name="Path 87" transform="translate(-393.944 -78.027)"/>
                    <path id="Path_88" d="M405.242 88c-5.614 0-11.3-1.56-11.3-4.542V79a.97.97 0 0 1 1.94 0v4.466c0 .917 3.552 2.6 9.358 2.6s9.357-1.686 9.357-2.6V79a.97.97 0 0 1 1.939 0v4.466c.002 2.978-5.681 4.534-11.294 4.534z" class="cls-2" data-name="Path 88" transform="translate(-393.944 -78.027)"/>
                </g>
                <g id="Group_38" data-name="Group 38" transform="translate(20.704 8.773)">
                    <g id="Group_36" data-name="Group 36" transform="translate(0 7.927)">
                        <path id="Path_89" d="M405.242 78.314c-5.614 0-11.3-1.561-11.3-4.542a.97.97 0 1 1 1.94 0c0 .917 3.552 2.6 9.358 2.6s9.357-1.685 9.357-2.6a.97.97 0 1 1 1.939 0c.002 2.982-5.681 4.542-11.294 4.542z" class="cls-2" data-name="Path 89" transform="translate(-393.944 -72.802)"/>
                        <path id="Path_90" d="M405.242 82.78c-5.614 0-11.3-1.56-11.3-4.542v-4.466a.97.97 0 1 1 1.94 0v4.466c0 .918 3.552 2.6 9.358 2.6s9.357-1.685 9.357-2.6v-4.466a.97.97 0 1 1 1.939 0v4.466c.002 2.981-5.681 4.542-11.294 4.542z" class="cls-2" data-name="Path 90" transform="translate(-393.944 -72.802)"/>
                    </g>
                    <g id="Group_37" data-name="Group 37">
                        <path id="Path_91" d="M405.242 72.375c-5.614 0-11.3-1.56-11.3-4.543s5.683-4.542 11.3-4.542 11.3 1.56 11.3 4.542-5.687 4.543-11.3 4.543zm0-7.145c-5.806 0-9.358 1.685-9.358 2.6s3.552 2.6 9.358 2.6 9.357-1.685 9.357-2.6-3.552-2.6-9.357-2.6z" class="cls-2" data-name="Path 91" transform="translate(-393.944 -63.29)"/>
                        <path id="Path_92" d="M405.242 77.555c-5.614 0-11.3-1.561-11.3-4.543v-4.465a.97.97 0 0 1 1.94 0v4.466c0 .917 3.552 2.6 9.358 2.6s9.357-1.685 9.357-2.6v-4.466a.97.97 0 1 1 1.939 0v4.466c.002 2.981-5.681 4.542-11.294 4.542z" class="cls-2" data-name="Path 92" transform="translate(-393.944 -64.005)"/>
                    </g>
                </g>
                <g id="Group_39" data-name="Group 39" transform="translate(41.409 21.054)">
                    <path id="Path_93" d="M430.087 83.539c-5.614 0-11.3-1.56-11.3-4.542a.97.97 0 0 1 1.939 0c0 .918 3.553 2.6 9.358 2.6s9.358-1.685 9.358-2.6a.97.97 0 0 1 1.94 0c.002 2.982-5.682 4.542-11.295 4.542z" class="cls-2" data-name="Path 93" transform="translate(-418.79 -78.027)"/>
                    <path id="Path_94" d="M430.087 88c-5.614 0-11.3-1.56-11.3-4.542V79a.97.97 0 0 1 1.939 0v4.466c0 .917 3.553 2.6 9.358 2.6s9.358-1.686 9.358-2.6V79a.97.97 0 0 1 1.94 0v4.466C441.384 86.444 435.7 88 430.087 88z" class="cls-2" data-name="Path 94" transform="translate(-418.79 -78.027)"/>
                </g>
                <g id="Group_42" data-name="Group 42" transform="translate(41.409 12.346)">
                    <g id="Group_40" data-name="Group 40" transform="translate(0 4.354)">
                        <path id="Path_95" d="M430.087 78.314c-5.614 0-11.3-1.561-11.3-4.542a.97.97 0 1 1 1.939 0c0 .917 3.553 2.6 9.358 2.6s9.358-1.685 9.358-2.6a.97.97 0 0 1 1.94 0c.002 2.982-5.682 4.542-11.295 4.542z" class="cls-2" data-name="Path 95" transform="translate(-418.79 -72.802)"/>
                        <path id="Path_96" d="M430.087 82.78c-5.614 0-11.3-1.56-11.3-4.542v-4.466a.97.97 0 1 1 1.939 0v4.466c0 .918 3.553 2.6 9.358 2.6s9.358-1.685 9.358-2.6v-4.466a.97.97 0 0 1 1.94 0v4.466c.002 2.981-5.682 4.542-11.295 4.542z" class="cls-2" data-name="Path 96" transform="translate(-418.79 -72.802)"/>
                    </g>
                    <g id="Group_41" data-name="Group 41">
                        <path id="Path_97" d="M430.087 73.09c-5.614 0-11.3-1.56-11.3-4.543a.97.97 0 1 1 1.939 0c0 .918 3.553 2.6 9.358 2.6s9.358-1.685 9.358-2.6a.97.97 0 0 1 1.94 0c.002 2.983-5.682 4.543-11.295 4.543z" class="cls-2" data-name="Path 97" transform="translate(-418.79 -67.577)"/>
                        <path id="Path_98" d="M430.087 77.555c-5.614 0-11.3-1.561-11.3-4.543v-4.465a.97.97 0 1 1 1.939 0v4.466c0 .917 3.553 2.6 9.358 2.6s9.358-1.685 9.358-2.6v-4.466a.97.97 0 0 1 1.94 0v4.466c.002 2.981-5.682 4.542-11.295 4.542z" class="cls-2" data-name="Path 98" transform="translate(-418.79 -67.577)"/>
                    </g>
                </g>
                <g id="Group_45" data-name="Group 45" transform="translate(41.409)">
                    <g id="Group_43" data-name="Group 43" transform="translate(0 7.927)">
                        <path id="Path_99" d="M430.087 67.786c-5.614 0-11.3-1.561-11.3-4.543a.97.97 0 0 1 1.939 0c0 .918 3.553 2.6 9.358 2.6s9.358-1.685 9.358-2.6a.97.97 0 0 1 1.94 0c.002 2.982-5.682 4.543-11.295 4.543z" class="cls-2" data-name="Path 99" transform="translate(-418.79 -62.274)"/>
                        <path id="Path_100" d="M430.087 72.251c-5.614 0-11.3-1.56-11.3-4.542v-4.466a.97.97 0 0 1 1.939 0v4.466c0 .918 3.553 2.6 9.358 2.6s9.358-1.685 9.358-2.6v-4.466a.97.97 0 0 1 1.94 0v4.466c.002 2.982-5.682 4.542-11.295 4.542z" class="cls-2" data-name="Path 100" transform="translate(-418.79 -62.274)"/>
                    </g>
                    <g id="Group_44" data-name="Group 44">
                        <path id="Path_101" d="M430.087 61.846c-5.614 0-11.3-1.56-11.3-4.542 0-2.009 2.667-3.6 7.137-4.252a28.817 28.817 0 0 1 4.16-.291.97.97 0 1 1 0 1.939 26.858 26.858 0 0 0-3.88.271c-3.87.566-5.478 1.8-5.478 2.333 0 .917 3.553 2.6 9.358 2.6s9.358-1.685 9.358-2.6c0-.534-1.607-1.767-5.478-2.333a.97.97 0 0 1 .28-1.919c4.469.653 7.138 2.242 7.138 4.252.002 2.982-5.682 4.542-11.295 4.542z" class="cls-2" data-name="Path 101" transform="translate(-418.79 -52.762)"/>
                        <path id="Path_102" d="M430.087 67.026c-5.614 0-11.3-1.561-11.3-4.542v-4.465a.97.97 0 1 1 1.939 0v4.465c0 .917 3.553 2.6 9.358 2.6s9.358-1.685 9.358-2.6v-4.465a.97.97 0 0 1 1.94 0v4.465c.002 2.982-5.682 4.542-11.295 4.542z" class="cls-2" data-name="Path 102" transform="translate(-418.79 -53.477)"/>
                    </g>
                </g>
            </g>
            <g id="Group_49" data-name="Group 49" transform="translate(37.51 8.015)">
                <path id="Path_103" d="M432.19 53.177a.97.97 0 0 1-.97-.97V32.948a.97.97 0 1 1 1.939 0v19.259a.97.97 0 0 1-.969.97z" class="cls-2" data-name="Path 103" transform="translate(-416.963 -31.978)"/>
                <g id="Group_47" data-name="Group 47" transform="translate(0 5.314)">
                    <path id="Path_104" d="M422.519 47.993h-.08c-3.943-.1-7.794-7.373-8.22-8.2a.969.969 0 0 1 .818-1.412c.932-.042 9.159-.322 11.207 3.045.5.822.856 2.218-.289 4.2-1.125 1.943-2.474 2.367-3.436 2.367zm-5.8-7.7c1.562 2.612 3.986 5.714 5.766 5.757.246.01.965.027 1.788-1.4.811-1.4.436-2.02.313-2.223-.926-1.519-4.823-2.077-7.866-2.127z" class="cls-2" data-name="Path 104" transform="translate(-414.111 -38.355)"/>
                    <path id="Path_105" d="M430.711 49.344a.962.962 0 0 1-.484-.13l-7.392-4.268a.97.97 0 1 1 .97-1.68l7.392 4.268a.97.97 0 0 1-.486 1.81z" class="cls-2" data-name="Path 105" transform="translate(-415.484 -39.152)"/>
                </g>
                <g id="Group_48" data-name="Group 48" transform="translate(14.257 5.315)">
                    <path id="Path_106" d="M439.728 47.994c-.963 0-2.312-.424-3.436-2.369-1.145-1.983-.788-3.379-.288-4.2 2.049-3.368 10.278-3.085 11.206-3.045a.97.97 0 0 1 .818 1.412c-.427.829-4.276 8.1-8.219 8.2zm-1.756-3.339c.819 1.421 1.541 1.408 1.789 1.4 1.783-.043 4.206-3.145 5.765-5.757-3.043.055-6.943.615-7.867 2.135-.123.2-.5.819.313 2.222z" class="cls-2" data-name="Path 106" transform="translate(-431.938 -38.356)"/>
                    <path id="Path_107" d="M432.191 49.344a.97.97 0 0 1-.486-1.81l7.393-4.268a.97.97 0 1 1 .969 1.68l-7.392 4.268a.962.962 0 0 1-.484.13z" class="cls-2" data-name="Path 107" transform="translate(-431.22 -39.153)"/>
                </g>
            </g>
            <path id="Path_108" d="M431.364 36.181c-2.293 0-3.336-.994-3.807-1.839-1.962-3.516 2.564-10.727 3.087-11.537a.971.971 0 0 1 .811-.444.97.97 0 0 1 .81.437c.52.789 5.025 7.812 3.14 11.395-.463.881-1.513 1.941-3.886 1.987zm.122-1.941l.019.969-.019-.969c1.724-.034 2.088-.724 2.208-.951.867-1.646-.686-5.392-2.227-8.088-1.55 2.762-3.113 6.589-2.217 8.2.121.212.484.874 2.236.839z" class="cls-2" data-name="Path 108" transform="translate(-378.76 -22.36)"/>
        </g>
    </g>
</svg>
