<svg xmlns="http://www.w3.org/2000/svg" width="136" height="40" viewBox="0 0 136 40">
    <defs>
        <style>
            .cls-1{fill:#f76b00}.cls-2,.cls-3,.cls-4{fill:#fff}.cls-2{stroke:#fff;stroke-miterlimit:10;stroke-width:.16px}.cls-4{stroke:#f76b00}
        </style>
    </defs>
    <g id="g12" transform="translate(-14.066 -286.189)">
        <path id="path14" d="M145.029 326.189H19.1a5.035 5.035 0 0 1-5.037-5v-30a5.035 5.035 0 0 1 5.037-5h125.929a5.035 5.035 0 0 1 5.037 5v30a5.035 5.035 0 0 1-5.037 5z" class="cls-1"/>
        <g id="g18" transform="translate(55.905 293.054)">
            <path id="path20" d="M274.342 331.267a2.712 2.712 0 0 1-.751 2 2.976 2.976 0 0 1-2.234.889 3.088 3.088 0 0 1-2.232-.9 3.173 3.173 0 0 1 0-4.467 3.072 3.072 0 0 1 2.232-.9 3.208 3.208 0 0 1 1.246.254 2.467 2.467 0 0 1 .949.669l-.529.527a2.072 2.072 0 0 0-1.666-.708 2.333 2.333 0 0 0-1.659.664 2.5 2.5 0 0 0 0 3.462 2.354 2.354 0 0 0 1.659.664 2.322 2.322 0 0 0 1.695-.669 1.872 1.872 0 0 0 .508-1.216h-2.2v-.723h2.94a2.033 2.033 0 0 1 .042.454z" class="cls-2" transform="translate(-268.206 -327.888)"/>
        </g>
        <g id="g22" transform="translate(63.162 293.192)">
            <path id="path24" d="M315.829 329.46h-2.761v1.9h2.489v.722h-2.489v1.9h2.761v.736h-3.543v-5.995h3.543z" class="cls-2" transform="translate(-312.286 -328.724)"/>
        </g>
        <g id="g26" transform="translate(67.52 293.192)">
            <path id="path28" d="M341.234 334.719h-.782v-5.259h-1.693v-.736h4.17v.736h-1.695z" class="cls-2" transform="translate(-338.759 -328.724)"/>
        </g>
        <g id="g30" transform="translate(74.708 293.192)">
            <path id="path32" d="M382.416 334.719v-5.995h.78v5.995z" class="cls-2" transform="translate(-382.416 -328.724)"/>
        </g>
        <g id="g34" transform="translate(76.472 293.192)">
            <path id="path36" d="M395.608 334.719h-.775v-5.259h-1.7v-.736h4.175v.736h-1.7z" class="cls-2" transform="translate(-393.133 -328.724)"/>
        </g>
        <g id="g38" transform="translate(83.195 293.054)">
            <path id="path40" d="M439.317 333.249a3.18 3.18 0 0 1-4.452 0 3.218 3.218 0 0 1 0-4.453 3.168 3.168 0 0 1 4.447.005 3.206 3.206 0 0 1 .005 4.448zm-3.874-.5a2.352 2.352 0 0 0 3.3 0 2.534 2.534 0 0 0 0-3.448 2.353 2.353 0 0 0-3.3 0 2.534 2.534 0 0 0 0 3.448z" class="cls-2" transform="translate(-433.971 -327.888)"/>
        </g>
        <g id="g42" transform="translate(90.532 293.192)">
            <path id="path44" d="M478.535 334.719v-5.995h.949l2.949 4.663h.034l-.034-1.153v-3.51h.78v5.995h-.813l-3.088-4.892h-.034l.034 1.158v3.735z" class="cls-2" transform="translate(-478.535 -328.724)"/>
        </g>
        <path id="path46" d="M293.7 394.437a4.254 4.254 0 1 0 4.323 4.254 4.218 4.218 0 0 0-4.323-4.254zm0 6.831a2.583 2.583 0 1 1 2.431-2.577 2.471 2.471 0 0 1-2.431 2.577zm-9.421-6.831a4.254 4.254 0 1 0 4.318 4.254 4.215 4.215 0 0 0-4.318-4.254zm0 6.831a2.583 2.583 0 1 1 2.426-2.577 2.474 2.474 0 0 1-2.426 2.577zm-11.21-5.527v1.807h4.367a3.733 3.733 0 0 1-.993 2.27 4.514 4.514 0 0 1-3.374 1.319 4.8 4.8 0 0 1 0-9.6 4.66 4.66 0 0 1 3.291 1.289l1.289-1.274a6.411 6.411 0 0 0-4.58-1.821 6.609 6.609 0 1 0 0 13.213 6.147 6.147 0 0 0 4.664-1.855 6.437 6.437 0 0 0 1.482-5.348zm45.841 1.4a3.987 3.987 0 0 0-3.685-2.705 4.064 4.064 0 0 0-4.056 4.254 4.185 4.185 0 0 0 4.268 4.253 4.278 4.278 0 0 0 3.587-1.885l-1.467-.966a2.466 2.466 0 0 1-2.12 1.176 2.19 2.19 0 0 1-2.084-1.289l5.756-2.354zm-5.868 1.416a2.346 2.346 0 0 1 2.247-2.48 1.675 1.675 0 0 1 1.6.9zm-4.678 4.126h1.892v-12.5h-1.892zm-3.1-7.3h-.064a3 3 0 0 0-2.263-.947 4.255 4.255 0 0 0 0 8.506 2.954 2.954 0 0 0 2.263-.966h.063v.61a2.19 2.19 0 0 1-2.3 2.5 2.387 2.387 0 0 1-2.169-1.519l-1.645.679a4.106 4.106 0 0 0 3.814 2.515c2.218 0 4.09-1.29 4.09-4.429V394.7h-1.793zm-2.164 5.884a2.585 2.585 0 0 1 0-5.156 2.6 2.6 0 0 1 0 5.156zm24.667-11.084h-4.525v12.5h1.887v-4.736h2.638a3.891 3.891 0 1 0 0-7.764zm.049 6.025h-2.688v-4.286h2.688a2.144 2.144 0 1 1 0 4.286zm11.664-1.8a3.547 3.547 0 0 0-3.364 1.914l1.675.694a1.791 1.791 0 0 1 1.724-.919 1.813 1.813 0 0 1 1.987 1.607v.131a4.184 4.184 0 0 0-1.972-.484c-1.8 0-3.641.981-3.641 2.812a2.908 2.908 0 0 0 3.138 2.754 2.678 2.678 0 0 0 2.411-1.225h.065v.966h1.822v-4.788c0-2.216-1.675-3.456-3.844-3.456zm-.228 6.85c-.617 0-1.477-.3-1.477-1.059 0-.968 1.073-1.339 2-1.339a3.417 3.417 0 0 1 1.725.42 2.282 2.282 0 0 1-2.246 1.984zm10.711-6.576l-2.169 5.419h-.065l-2.242-5.419h-2.035l3.369 7.572-1.922 4.214h1.972l5.192-11.786zm-17.009 8h1.892v-12.5h-1.892z" class="cls-3" transform="translate(-210.697 -86.496)"/>
        <g id="g48" transform="translate(24.155 293.655)">
            <path id="path64" d="M75.815 331.613a1.976 1.976 0 0 0-.469 1.406v22.115a1.975 1.975 0 0 0 .469 1.406l.073.067 12.539-12.387v-.292L75.889 331.54z" class="cls-4" transform="translate(-75.346 -331.54)"/>
        </g>
        <g id="g66" transform="translate(37.236 301.912)">
            <path id="path78" d="M158.978 390.246l-4.175-4.131v-.292l4.18-4.131.094.054 4.95 2.784c1.413.79 1.413 2.09 0 2.885l-4.95 2.779z" class="cls-4" transform="translate(-154.803 -381.691)"/>
        </g>
        <g id="g80" transform="translate(24.624 306.189)">
            <path id="path88" d="M95.082 411.9l-4.273-4.224L78.2 420.139a1.662 1.662 0 0 0 2.1.059l14.781-8.3" class="cls-4" transform="translate(-78.197 -407.673)"/>
        </g>
        <g id="g90" transform="translate(24.624 293.331)">
            <path id="path104" d="M95.082 338.2L80.3 329.9a1.668 1.668 0 0 0-2.1.064l12.612 12.461z" class="cls-4" transform="translate(-78.197 -329.569)"/>
        </g>
    </g>
</svg>
