<svg xmlns="http://www.w3.org/2000/svg" width="100" height="100" viewBox="0 0 100 100">
    <defs>
        <style>
            .cls-1{fill:url(#linear-gradient)}.cls-2{fill:#fff}
        </style>
        <linearGradient id="linear-gradient" x1="1.843" x2="-.518" y1="-.769" y2="1.462" gradientUnits="objectBoundingBox">
            <stop offset="0" stop-color="#f7b200"/>
            <stop offset=".147" stop-color="#f7ab00"/>
            <stop offset=".353" stop-color="#f79900"/>
            <stop offset=".594" stop-color="#f77b00"/>
            <stop offset=".859" stop-color="#f75100"/>
            <stop offset=".944" stop-color="#f74300"/>
        </linearGradient>
    </defs>
    <g id="Group_27" data-name="Group 27" transform="translate(-70 -10)">
        <rect id="Rectangle_6" width="100" height="100" class="cls-1" data-name="Rectangle 6" rx="20" transform="translate(70 10)"/>
        <g id="Group_25" data-name="Group 25" transform="translate(85.182 87.083)">
            <path id="Path_50" d="M92.946 112.268a4.064 4.064 0 0 0 .662-.053 2.383 2.383 0 0 0 .558-.157 1.164 1.164 0 0 0 .4-.3.7.7 0 0 0 .157-.471.84.84 0 0 0-.123-.453 1.208 1.208 0 0 0-.471-.384 5.765 5.765 0 0 0-.889-.367c-.367-.122-.82-.261-1.378-.418a9.7 9.7 0 0 1-1.431-.506 4.238 4.238 0 0 1-1.116-.715 2.57 2.57 0 0 1-.7-1.012 3.854 3.854 0 0 1-.244-1.413 3.057 3.057 0 0 1 .366-1.518 3.341 3.341 0 0 1 .994-1.1 4.763 4.763 0 0 1 1.465-.68 6.523 6.523 0 0 1 1.763-.227 7.6 7.6 0 0 1 1.762.175 4.879 4.879 0 0 1 1.465.627 1.8 1.8 0 0 1 .715.68 1.637 1.637 0 0 1 .209.768 1.39 1.39 0 0 1-.122.628 1.313 1.313 0 0 1-.314.418 1.213 1.213 0 0 1-.418.227 1.308 1.308 0 0 1-.418.07 1.531 1.531 0 0 1-.611-.1c-.157-.069-.332-.157-.506-.244-.262-.139-.523-.278-.785-.4a2.81 2.81 0 0 0-1.151-.192 1.915 1.915 0 0 0-1.2.278.775.775 0 0 0-.331.577.694.694 0 0 0 .122.418 1.386 1.386 0 0 0 .436.367 5.468 5.468 0 0 0 .82.366c.332.122.768.244 1.291.383q.706.184 1.361.419a4.15 4.15 0 0 1 1.186.662 3.088 3.088 0 0 1 .838 1.047 3.392 3.392 0 0 1 .314 1.535 3.629 3.629 0 0 1-.3 1.431 3.039 3.039 0 0 1-.89 1.168 4.525 4.525 0 0 1-1.5.785 6.814 6.814 0 0 1-2.093.3 7.779 7.779 0 0 1-2.268-.3 4.457 4.457 0 0 1-1.57-.82 4.341 4.341 0 0 1-.523-.576 1.18 1.18 0 0 1-.262-.732 1.28 1.28 0 0 1 .157-.663 1.433 1.433 0 0 1 .366-.418 1.18 1.18 0 0 1 .419-.21 1.521 1.521 0 0 1 .348-.053 1.268 1.268 0 0 1 .523.105 3.242 3.242 0 0 1 .471.262 4.746 4.746 0 0 0 1.134.593 4.138 4.138 0 0 0 1.4.209z" class="cls-2" data-name="Path 50" transform="translate(-88.218 -102.5)"/>
            <path id="Path_51" d="M113.482 102.772a1.461 1.461 0 0 1 .977.314 1.22 1.22 0 0 1 0 1.744 1.409 1.409 0 0 1-.959.314h-2.494v8.268a1.344 1.344 0 1 1-2.687 0v-8.268h-2.494a1.411 1.411 0 0 1-.96-.314 1.222 1.222 0 0 1 0-1.744 1.465 1.465 0 0 1 .977-.314h7.64z" class="cls-2" data-name="Path 51" transform="translate(-90.931 -102.545)"/>
            <path id="Path_52" d="M129.707 103a5.2 5.2 0 0 1 1.832 1.256 5.642 5.642 0 0 1 1.187 1.954 8.068 8.068 0 0 1 0 5.128 5.646 5.646 0 0 1-1.187 1.953 5.2 5.2 0 0 1-1.832 1.256 6.082 6.082 0 0 1-2.354.436 5.934 5.934 0 0 1-2.338-.436 5.3 5.3 0 0 1-1.814-1.256 5.647 5.647 0 0 1-1.187-1.953 8.068 8.068 0 0 1 0-5.128 5.642 5.642 0 0 1 1.187-1.954 5.3 5.3 0 0 1 1.814-1.256 5.935 5.935 0 0 1 2.338-.436 6.082 6.082 0 0 1 2.354.436zm-4.5 3.158a4.528 4.528 0 0 0 0 5.2 2.913 2.913 0 0 0 4.291 0 4.528 4.528 0 0 0 0-5.2 2.913 2.913 0 0 0-4.291 0z" class="cls-2" data-name="Path 52" transform="translate(-93.781 -102.51)"/>
            <path id="Path_53" d="M149.654 106.687c-.209-.227-.4-.418-.575-.593a3.245 3.245 0 0 0-.558-.436 1.981 1.981 0 0 0-.628-.262 3.514 3.514 0 0 0-.8-.087 2.594 2.594 0 0 0-2.128.96 4.12 4.12 0 0 0-.785 2.668 3.677 3.677 0 0 0 .819 2.529 2.96 2.96 0 0 0 2.338.907 3.471 3.471 0 0 0 .785-.087 2.5 2.5 0 0 0 .628-.244 3.016 3.016 0 0 0 .558-.4c.174-.157.366-.332.558-.524a1.121 1.121 0 0 1 .4-.261 1.3 1.3 0 0 1 .453-.07.868.868 0 0 1 .471.122 1.6 1.6 0 0 1 .367.314 1.3 1.3 0 0 1 .244.384 1.181 1.181 0 0 1 .088.4 2.047 2.047 0 0 1-.088.541 1.575 1.575 0 0 1-.314.576 5.867 5.867 0 0 1-.663.645 4.463 4.463 0 0 1-.925.611 6.437 6.437 0 0 1-1.2.453 5.832 5.832 0 0 1-1.518.174 5.934 5.934 0 0 1-2.337-.436 5.226 5.226 0 0 1-1.8-1.256 5.7 5.7 0 0 1-1.168-1.936 7.162 7.162 0 0 1-.418-2.512 7.327 7.327 0 0 1 .418-2.529 5.506 5.506 0 0 1 5.32-3.732 5.808 5.808 0 0 1 1.832.262 6.441 6.441 0 0 1 1.343.61 4.3 4.3 0 0 1 .889.7 6.423 6.423 0 0 1 .471.541 1.74 1.74 0 0 1 .192.471 2.1 2.1 0 0 1 .052.471 1.165 1.165 0 0 1-.122.575 1.456 1.456 0 0 1-.314.4 1.2 1.2 0 0 1-.418.227 1.308 1.308 0 0 1-.418.07 1.469 1.469 0 0 1-.472-.07 1.078 1.078 0 0 1-.436-.279z" class="cls-2" data-name="Path 53" transform="translate(-97.091 -102.517)"/>
            <path id="Path_54" d="M169.357 112.338a2.6 2.6 0 0 1 .453.646 1.259 1.259 0 0 1-.035 1.081 1.363 1.363 0 0 1-.332.436 1.262 1.262 0 0 1-.436.262 1.329 1.329 0 0 1-.418.069 1.386 1.386 0 0 1-1.082-.471l-3.506-4-.733.82v2.232a1.4 1.4 0 0 1-.366 1 1.391 1.391 0 0 1-1.954 0 1.4 1.4 0 0 1-.366-1v-9.203a1.4 1.4 0 0 1 .366-1 1.391 1.391 0 0 1 1.954 0 1.4 1.4 0 0 1 .366 1v3.418l3.837-4.308a2.151 2.151 0 0 1 .472-.366 1.281 1.281 0 0 1 .628-.14 1.261 1.261 0 0 1 .924.367 1.14 1.14 0 0 1 .367.819 2.151 2.151 0 0 1-.053.471 1.147 1.147 0 0 1-.3.489l-3.139 3.488 3.383 3.855z" class="cls-2" data-name="Path 54" transform="translate(-100.279 -102.552)"/>
        </g>
        <g id="Group_26" data-name="Group 26" transform="translate(85.965 22.5)">
            <path id="Path_55" d="M96.959 89.858a1.147 1.147 0 1 0 2.294 0v-3.824h-2.294z" class="cls-2" data-name="Path 55" transform="translate(-90.458 -35.172)"/>
            <path id="Path_56" d="M99.253 50.929a1.147 1.147 0 1 0-2.294 0v3.059h2.294z" class="cls-2" data-name="Path 56" transform="translate(-90.458 -29.13)"/>
            <path id="Path_57" d="M91.452 78.539V57.123h4.207v-2.294h-5.613a.888.888 0 0 0-.888.888v24.228a.888.888 0 0 0 .888.888h5.613v-2.294z" class="cls-2" data-name="Path 57" transform="translate(-89.158 -29.971)"/>
            <path id="Path_58" d="M105.325 54.829h-5.613v2.294h4.207v21.416h-4.207v2.294h5.613a.889.889 0 0 0 .888-.888V55.717a.889.889 0 0 0-.888-.888z" class="cls-2" data-name="Path 58" transform="translate(-90.917 -29.971)"/>
            <path id="Rectangle_7" d="M0 0h2.295v2.295H0z" class="cls-2" data-name="Rectangle 7" transform="translate(6.501 24.857)"/>
            <path id="Rectangle_8" d="M0 0h2.295v2.295H0z" class="cls-2" data-name="Rectangle 8" transform="translate(6.501 48.567)"/>
            <path id="Path_59" d="M118.068 69.666a1.147 1.147 0 1 0 2.295 0v-8.413h-2.295z" class="cls-2" data-name="Path 59" transform="translate(-93.976 -31.042)"/>
            <path id="Path_60" d="M124.974 47.486h-14.117a.59.59 0 0 0-.59.59v10.292a.59.59 0 0 0 .59.59h5.911v-2.294h-4.206v-6.883h4.206v-.765a1.147 1.147 0 0 1 2.295 0v.765h4.207v6.883h-4.207v2.294h5.911a.59.59 0 0 0 .59-.59V48.076a.59.59 0 0 0-.59-.59z" class="cls-2" data-name="Path 60" transform="translate(-92.676 -28.748)"/>
            <path id="Rectangle_9" d="M0 0h2.295v2.295H0z" class="cls-2" data-name="Rectangle 9" transform="translate(24.092 27.917)"/>
            <path id="Path_61" d="M120.363 49.092a1.147 1.147 0 1 0-2.295 0v.765h2.295z" class="cls-2" data-name="Path 61" transform="translate(-93.976 -28.824)"/>
            <path id="Path_62" d="M141.473 36.243a1.148 1.148 0 0 0-2.3 0v2.294h2.3z" class="cls-2" data-name="Path 62" transform="translate(-97.495 -26.683)"/>
            <path id="Path_63" d="M145.76 39.226h-5.587v2.294h4.206v22.946h-4.206a1.148 1.148 0 0 1-2.3 0h-4.207V41.52h4.207v-2.294h-5.587a.914.914 0 0 0-.914.914v25.706a.914.914 0 0 0 .914.914h13.474a.914.914 0 0 0 .914-.914V40.14a.914.914 0 0 0-.914-.914z" class="cls-2" data-name="Path 63" transform="translate(-96.194 -27.371)"/>
            <path id="Path_64" d="M140.325 70.661a1.147 1.147 0 0 0 1.148-1.147h-2.3a1.147 1.147 0 0 0 1.152 1.147z" class="cls-2" data-name="Path 64" transform="translate(-97.495 -32.419)"/>
            <path id="Rectangle_10" d="M0 0h2.295v2.295H0z" class="cls-2" data-name="Rectangle 10" transform="translate(41.683 11.855)"/>
            <path id="Path_65" d="M160.288 79.609a1.147 1.147 0 1 0 2.294 0v-9.177h-2.294z" class="cls-2" data-name="Path 65" transform="translate(-101.013 -32.572)"/>
            <path id="Path_66" d="M162.582 26.147a1.147 1.147 0 1 0-2.294 0v3.059h2.294z" class="cls-2" data-name="Path 66" transform="translate(-101.013 -25)"/>
            <path id="Path_67" d="M154.781 61.406V32.342h4.207v-2.294H153.5a1.011 1.011 0 0 0-1.011 1.011V62.69a1.011 1.011 0 0 0 1.011 1.01h5.491v-2.294z" class="cls-2" data-name="Path 67" transform="translate(-99.713 -25.841)"/>
            <path id="Path_68" d="M168.532 30.048h-5.491v2.294h4.207v29.064h-4.207V63.7h5.491a1.011 1.011 0 0 0 1.01-1.011v-31.63a1.011 1.011 0 0 0-1.01-1.011z" class="cls-2" data-name="Path 68" transform="translate(-101.472 -25.841)"/>
            <path id="Rectangle_11" d="M0 0h2.295v2.295H0z" class="cls-2" data-name="Rectangle 11" transform="translate(59.275 4.207)"/>
            <path id="Rectangle_12" d="M0 0h2.295v2.295H0z" class="cls-2" data-name="Rectangle 12" transform="translate(59.275 35.565)"/>
        </g>
    </g>
</svg>
